<?xml version="1.0" encoding="utf-8" standalone="no"?>
<!DOCTYPE svg PUBLIC "-//W3C//DTD SVG 1.1//EN"
  "http://www.w3.org/Graphics/SVG/1.1/DTD/svg11.dtd">
<svg xmlns:xlink="http://www.w3.org/1999/xlink" width="1152pt" height="432pt" viewBox="0 0 1152 432" xmlns="http://www.w3.org/2000/svg" version="1.1">
 <metadata>
  <rdf:RDF xmlns:dc="http://purl.org/dc/elements/1.1/" xmlns:cc="http://creativecommons.org/ns#" xmlns:rdf="http://www.w3.org/1999/02/22-rdf-syntax-ns#">
   <cc:Work>
    <dc:type rdf:resource="http://purl.org/dc/dcmitype/StillImage"/>
    <dc:date>2022-05-17T09:47:57.341405</dc:date>
    <dc:format>image/svg+xml</dc:format>
    <dc:creator>
     <cc:Agent>
      <dc:title>Matplotlib v3.5.1, https://matplotlib.org/</dc:title>
     </cc:Agent>
    </dc:creator>
   </cc:Work>
  </rdf:RDF>
 </metadata>
 <defs>
  <style type="text/css">*{stroke-linejoin: round; stroke-linecap: butt}</style>
 </defs>
 <g id="figure_1">
  <g id="patch_1">
   <path d="M 0 432 
L 1152 432 
L 1152 0 
L 0 0 
L 0 432 
z
" style="fill: none"/>
  </g>
  <g id="axes_1">
   <g id="patch_2">
    <path d="M 51.77 404.12 
L 1141.2 404.12 
L 1141.2 10.8 
L 51.77 10.8 
L 51.77 404.12 
z
" style="fill: none"/>
   </g>
   <g id="line2d_1">
    <path d="M 51.477937 101.949405 
L 53.06141 98.080822 
L 54.644882 100.348818 
L 56.228354 98.175285 
L 57.811826 89.006301 
L 59.395298 83.898573 
L 60.978771 75.355474 
L 64.145715 48.382481 
L 65.729187 47.172294 
L 67.312659 48.252777 
L 68.896132 44.850149 
L 70.479604 45.663653 
L 72.063076 50.381 
L 73.646548 46.026325 
L 75.23002 40.364501 
L 76.813493 43.655065 
L 78.396965 44.780858 
L 79.980437 41.66158 
L 81.563909 43.900638 
L 83.147381 43.432166 
L 84.730854 42.051961 
L 86.314326 42.25722 
L 87.897798 42.662742 
L 89.48127 42.764738 
L 91.064742 45.52388 
L 92.648215 43.195432 
L 94.231687 45.342525 
L 95.815159 47.13198 
L 97.398631 50.271434 
L 98.982104 45.508738 
L 100.565576 44.614645 
L 102.149048 37.942858 
L 103.73252 37.405134 
L 105.315992 32.425881 
L 106.899465 28.678182 
L 108.482937 33.530268 
L 110.066409 30.13521 
L 111.649881 43.984994 
L 113.233353 100.430676 
L 114.816826 193.131667 
L 116.400298 228.859322 
L 117.98377 242.967283 
L 119.567242 253.905565 
L 121.150714 257.032414 
L 122.734187 258.02097 
L 124.317659 257.617985 
L 127.484603 257.684739 
L 129.068075 257.979407 
L 130.651548 259.577458 
L 132.23502 260.821656 
L 133.818492 261.079816 
L 135.401964 302.435282 
L 136.985436 335.051201 
L 138.568909 335.546103 
L 140.152381 338.180566 
L 141.735853 339.057039 
L 143.319325 339.628765 
L 144.902797 339.080962 
L 146.48627 340.419605 
L 148.069742 339.850396 
L 149.653214 352.2243 
L 151.236686 356.216285 
L 152.820159 355.317142 
L 154.403631 356.382513 
L 155.987103 355.600488 
L 157.570575 355.422923 
L 159.154047 355.587893 
L 160.73752 355.105581 
L 162.320992 375.856357 
L 163.904464 379.661966 
L 165.487936 355.629451 
L 167.071408 356.174727 
L 168.654881 355.935461 
L 170.238353 356.659561 
L 171.821825 356.17599 
L 174.988769 356.026129 
L 176.572242 355.543817 
L 178.155714 355.672267 
L 179.739186 373.770955 
L 181.322658 381.285208 
L 182.90613 381.423732 
L 184.489603 381.335581 
L 186.073075 381.413653 
L 189.240019 379.518407 
L 190.823491 374.905582 
L 193.990436 314.127904 
L 195.573908 132.41947 
L 197.15738 108.884385 
L 198.740852 112.294565 
L 200.324325 101.771835 
L 201.907797 106.782602 
L 203.491269 113.888849 
L 205.074741 107.9739 
L 206.658213 95.487932 
L 208.241686 62.259973 
L 209.825158 51.544571 
L 211.40863 47.537502 
L 212.992102 47.358683 
L 214.575575 46.814656 
L 217.742519 46.897744 
L 219.325991 45.814763 
L 222.492936 45.176311 
L 224.076408 46.08424 
L 225.65988 42.685416 
L 227.243352 47.366216 
L 228.826824 45.085615 
L 230.410297 44.296053 
L 231.993769 44.382945 
L 233.577241 45.414313 
L 235.160713 50.095113 
L 236.744185 47.552605 
L 238.327658 42.517896 
L 239.91113 48.177222 
L 241.494602 46.814656 
L 243.078074 46.603095 
L 244.661546 46.061604 
L 246.245019 45.197717 
L 247.828491 49.452895 
L 249.411963 45.774449 
L 250.995435 48.193593 
L 252.578907 48.562568 
L 254.16238 47.173562 
L 257.329324 38.627927 
L 258.912796 40.703269 
L 260.496268 40.880819 
L 262.079741 38.524663 
L 263.663213 32.220583 
L 265.246685 96.899612 
L 266.830157 184.38329 
L 268.41363 219.899382 
L 269.997102 240.307638 
L 271.580574 249.727211 
L 273.164046 255.766809 
L 274.747518 255.778146 
L 276.330991 257.014793 
L 277.914463 360.81148 
L 279.497935 378.704899 
L 281.081407 380.154351 
L 282.664879 376.203925 
L 284.248352 364.464711 
L 285.831824 364.743017 
L 287.415296 365.688752 
L 288.998768 365.843648 
L 290.58224 365.486005 
L 292.165713 366.608042 
L 293.749185 365.773127 
L 295.332657 366.412852 
L 296.916129 366.546336 
L 298.499601 366.227735 
L 300.083074 366.925389 
L 301.666546 366.262995 
L 303.250018 367.08028 
L 304.83349 366.479596 
L 308.000435 366.789383 
L 309.583907 365.997285 
L 311.167379 367.478222 
L 312.750851 365.946911 
L 315.917796 367.230141 
L 317.501268 366.106841 
L 319.08474 367.029912 
L 320.668212 365.883947 
L 322.251685 366.383889 
L 323.835157 367.285549 
L 325.418629 366.269293 
L 327.002101 366.660937 
L 328.585573 366.172327 
L 331.752518 366.686119 
L 333.33599 366.153434 
L 334.919462 367.240215 
L 336.502934 366.673528 
L 338.086407 372.835294 
L 339.669879 381.563514 
L 341.253351 381.699516 
L 342.836823 374.51646 
L 344.420295 320.380333 
L 346.003768 270.60391 
L 347.58724 147.549981 
L 349.170712 115.63676 
L 350.754184 116.375958 
L 352.337656 113.798171 
L 353.921129 112.162343 
L 355.504601 107.108765 
L 357.088073 91.121919 
L 358.671545 87.813754 
L 360.255017 80.125702 
L 361.83849 69.963128 
L 363.421962 71.722376 
L 365.005434 78.391626 
L 366.588906 68.526275 
L 368.172378 55.041662 
L 369.755851 51.103846 
L 371.339323 51.622662 
L 372.922795 52.889535 
L 374.506267 51.958894 
L 376.089739 49.883551 
L 377.673212 50.234924 
L 379.256684 53.608576 
L 380.840156 50.606397 
L 382.423628 50.50567 
L 384.007101 48.146977 
L 385.590573 51.47282 
L 387.174045 52.777432 
L 388.757517 52.722015 
L 390.340989 49.340793 
L 391.924462 53.340367 
L 393.507934 49.261471 
L 395.091406 55.075673 
L 396.674878 55.04293 
L 398.25835 57.152245 
L 399.841823 52.278753 
L 401.425295 45.792089 
L 403.008767 49.888586 
L 404.592239 46.943092 
L 406.175711 41.919759 
L 407.759184 38.099003 
L 409.342656 38.514594 
L 410.926128 40.015664 
L 412.5096 37.824491 
L 414.093072 40.019469 
L 415.676545 44.034108 
L 417.260017 94.389809 
L 418.843489 198.602067 
L 420.426961 217.909683 
L 422.010433 243.64603 
L 423.593906 252.724336 
L 425.177378 258.218678 
L 426.76085 259.19338 
L 428.344322 259.474194 
L 429.927794 257.644444 
L 431.511267 260.567283 
L 433.094739 259.972892 
L 434.678211 261.898364 
L 437.845156 263.934651 
L 439.428628 263.286111 
L 441.0121 263.972428 
L 442.595572 324.55618 
L 444.179044 339.88188 
L 445.762517 341.536607 
L 447.345989 339.836551 
L 448.929461 341.83128 
L 452.096405 340.420863 
L 455.26335 344.580339 
L 456.846822 344.492188 
L 458.430294 344.634488 
L 460.013766 349.597394 
L 461.597239 360.592361 
L 463.180711 359.552178 
L 464.764183 357.884861 
L 466.347655 358.721039 
L 467.931127 364.843764 
L 469.5146 369.776449 
L 471.098072 370.775074 
L 472.681544 370.339355 
L 474.265016 371.12516 
L 475.848488 371.60873 
L 479.015433 372.287496 
L 480.598905 371.427394 
L 482.182377 372.721956 
L 485.349322 371.3065 
L 486.932794 372.181715 
L 488.516266 371.108788 
L 490.099738 371.562138 
L 491.68321 370.540843 
L 493.266683 367.126877 
L 494.850155 360.254867 
L 496.433627 350.320235 
L 498.017099 316.416057 
L 499.600572 149.807908 
L 501.184044 118.511733 
L 502.767516 121.09834 
L 504.350988 118.018089 
L 505.93446 115.830682 
L 507.517933 102.46067 
L 509.101405 96.936121 
L 510.684877 95.544579 
L 512.268349 90.338622 
L 513.851821 81.066413 
L 515.435294 78.677513 
L 517.018766 73.861937 
L 518.602238 77.631041 
L 520.18571 58.057714 
L 521.769182 51.433775 
L 523.352655 53.584672 
L 524.936127 54.216821 
L 526.519599 53.810069 
L 528.103071 52.779968 
L 529.686543 49.765184 
L 531.270016 51.485387 
L 532.853488 49.771487 
L 534.43696 51.729692 
L 536.020432 47.888837 
L 537.603904 51.377089 
L 539.187377 52.101203 
L 540.770849 53.157744 
L 542.354321 49.9289 
L 543.937793 54.249564 
L 545.521265 49.91126 
L 547.104738 50.210982 
L 548.68821 52.277485 
L 550.271682 54.069477 
L 551.855154 53.898229 
L 553.438627 56.564177 
L 555.022099 52.584778 
L 556.605571 42.730726 
L 558.189043 34.390388 
L 559.772515 39.438933 
L 561.355988 41.720764 
L 562.93946 35.370106 
L 564.522932 37.383728 
L 566.106404 35.037641 
L 567.689876 44.921899 
L 569.273349 95.350657 
L 570.856821 210.415592 
L 574.023765 246.027377 
L 575.607237 251.399567 
L 577.19071 255.752974 
L 578.774182 255.779415 
L 580.357654 258.452914 
L 581.941126 260.854399 
L 583.524598 261.656576 
L 585.108071 263.865389 
L 586.691543 267.174832 
L 588.275015 268.041236 
L 591.441959 357.292987 
L 593.025432 357.551146 
L 594.608904 358.324356 
L 596.192376 358.059904 
L 597.775848 358.087607 
L 599.35932 358.548513 
L 600.942793 357.75641 
L 602.526265 358.029683 
L 604.109737 359.530767 
L 605.693209 360.200718 
L 607.276682 361.342901 
L 608.860154 360.468946 
L 610.443626 360.822812 
L 612.027098 360.356872 
L 613.61057 360.592361 
L 615.194043 367.801862 
L 616.777515 356.434144 
L 618.360987 355.492185 
L 619.944459 355.97198 
L 621.527931 355.630709 
L 623.111404 354.8575 
L 624.694876 355.133285 
L 626.278348 354.994765 
L 627.86182 355.721382 
L 629.445292 358.670666 
L 631.028765 371.651547 
L 632.612237 360.295166 
L 634.195709 360.853033 
L 635.779181 360.05212 
L 637.362653 359.831743 
L 638.946126 360.745994 
L 640.529598 360.939925 
L 642.11307 360.890815 
L 643.696542 359.571067 
L 645.280014 356.990758 
L 646.863487 349.154123 
L 648.446959 328.131334 
L 650.030431 299.406663 
L 651.613903 145.355022 
L 653.197375 129.597378 
L 654.780848 131.48758 
L 656.36432 126.229991 
L 657.947792 128.865713 
L 661.114736 112.017517 
L 662.698209 105.280244 
L 664.281681 100.416821 
L 665.865153 100.381561 
L 667.448625 95.951331 
L 669.032098 95.734734 
L 670.61557 86.255998 
L 672.199042 87.34655 
L 673.782514 85.797595 
L 675.365986 88.39552 
L 676.949459 84.646591 
L 678.532931 84.997926 
L 680.116403 96.724559 
L 681.699875 87.7558 
L 683.283347 84.649128 
L 684.86682 88.15502 
L 686.450292 92.454278 
L 688.033764 93.114135 
L 689.617236 85.531884 
L 691.200708 83.226111 
L 692.784181 93.593944 
L 694.367653 93.193457 
L 695.951125 94.688263 
L 697.534597 91.446813 
L 699.118069 85.052075 
L 702.285014 84.900965 
L 703.868486 76.0166 
L 705.451958 77.254496 
L 707.03543 82.091478 
L 708.618903 77.27717 
L 710.202375 76.366667 
L 711.785847 79.407891 
L 713.369319 77.920656 
L 714.952791 77.699025 
L 716.536264 74.859294 
L 718.119736 78.056663 
L 719.703208 84.073626 
L 721.28668 110.172644 
L 722.870153 222.037674 
L 724.453625 234.142083 
L 726.037097 249.572315 
L 727.620569 256.916564 
L 729.204041 262.436078 
L 730.787514 274.458639 
L 732.370986 274.73316 
L 733.954458 275.365328 
L 735.53793 275.574372 
L 737.121402 275.326292 
L 738.704875 277.003683 
L 740.288347 276.590637 
L 741.871819 277.503629 
L 743.455291 276.974715 
L 745.038763 279.096645 
L 746.622236 289.256693 
L 748.205708 290.842148 
L 749.78918 291.774038 
L 751.372652 291.369803 
L 752.956124 291.947823 
L 756.123069 292.731101 
L 757.706541 292.986743 
L 759.290013 292.160643 
L 760.873485 292.460355 
L 762.456958 292.06619 
L 764.04043 292.053603 
L 765.623902 291.83448 
L 767.207374 291.757667 
L 768.790846 292.489323 
L 770.374319 291.883595 
L 773.541263 292.229905 
L 775.124735 292.159384 
L 778.29168 292.175756 
L 779.875152 292.462873 
L 781.458624 290.915195 
L 783.042096 290.92023 
L 786.209041 292.462873 
L 787.792513 292.056121 
L 789.375985 293.520691 
L 790.959457 293.208383 
L 794.126402 293.860698 
L 795.709874 292.063672 
L 797.293346 289.189949 
L 798.876818 280.756406 
L 802.043763 226.850734 
L 803.627235 151.904637 
L 805.210707 116.658041 
L 806.794179 116.175734 
L 808.377652 119.107392 
L 809.961124 119.174127 
L 811.544596 115.818096 
L 813.128068 108.330289 
L 814.71154 108.201834 
L 816.295013 94.849442 
L 817.878485 83.331872 
L 819.461957 90.846139 
L 821.045429 89.71781 
L 822.628901 89.759354 
L 824.212374 88.779636 
L 825.795846 90.022566 
L 827.379318 88.267084 
L 828.96279 67.212825 
L 830.546262 66.892965 
L 832.129735 59.306909 
L 833.713207 53.967481 
L 835.296679 60.063766 
L 836.880151 64.307607 
L 838.463624 64.514134 
L 840.047096 65.289861 
L 841.630568 64.323978 
L 843.21404 63.557052 
L 844.797512 54.480034 
L 846.380985 55.153726 
L 847.964457 62.326727 
L 849.547929 52.743459 
L 851.131401 56.557874 
L 852.714873 55.342652 
L 854.298346 54.362896 
L 855.881818 58.490907 
L 857.46529 48.568871 
L 859.048762 49.915065 
L 860.632234 49.112859 
L 862.215707 47.577778 
L 863.799179 51.212144 
L 865.382651 48.081491 
L 866.966123 49.455393 
L 868.549595 50.135427 
L 870.133068 49.615342 
L 871.71654 64.875538 
L 873.300012 108.61362 
L 874.883484 225.568758 
L 876.466956 233.654741 
L 878.050429 249.290233 
L 879.633901 257.741405 
L 881.217373 261.438712 
L 882.800845 261.645239 
L 884.384317 263.556856 
L 885.96779 265.08943 
L 887.551262 265.85257 
L 889.134734 266.12835 
L 890.718206 280.002086 
L 892.301679 279.531106 
L 893.885151 280.573802 
L 895.468623 279.699846 
L 897.052095 280.298022 
L 900.21904 280.553655 
L 901.802512 280.970485 
L 903.385984 280.340834 
L 906.552928 281.03723 
L 909.719873 280.561216 
L 911.303345 281.02841 
L 912.886817 280.862187 
L 914.470289 280.507057 
L 916.053762 280.776553 
L 917.637234 280.427726 
L 919.220706 280.481875 
L 920.804178 280.245122 
L 923.971123 280.523429 
L 925.554595 280.397501 
L 927.138067 280.481875 
L 928.721539 278.943008 
L 931.888484 280.292978 
L 933.471956 280.689661 
L 935.055428 279.776669 
L 936.6389 280.039863 
L 938.222372 280.046156 
L 939.805845 280.355947 
L 941.389317 280.29172 
L 942.972789 279.944151 
L 944.556261 280.604028 
L 946.139733 280.617882 
L 947.723206 279.082791 
L 949.306678 276.256914 
L 950.89015 266.026355 
L 952.473622 238.666757 
L 954.057095 204.809167 
L 955.640567 127.116552 
L 957.224039 108.983863 
L 958.807511 110.955922 
L 960.390983 109.170233 
L 961.974456 111.99736 
L 963.557928 102.090446 
L 965.1414 96.227149 
L 966.724872 86.757175 
L 968.308344 86.720665 
L 969.891817 90.463291 
L 971.475289 84.214667 
L 973.058761 69.213842 
L 974.642233 60.250155 
L 976.225705 50.620271 
L 977.809178 50.331885 
L 979.39265 53.685399 
L 980.976122 31.941037 
L 982.559594 34.342542 
L 984.143066 42.80755 
L 985.726539 39.839382 
L 987.310011 44.707839 
L 988.893483 39.853217 
L 990.476955 34.244313 
L 992.060427 36.672219 
L 993.6439 42.089738 
L 995.227372 38.007076 
L 996.810844 45.789591 
L 998.394316 47.634463 
L 999.977788 39.047284 
L 1001.561261 38.750098 
L 1003.144733 37.699822 
L 1004.728205 37.101646 
L 1006.311677 39.034679 
L 1007.89515 39.941377 
L 1009.478622 29.877032 
L 1011.062094 32.52534 
L 1012.645566 32.50647 
L 1014.229038 35.220264 
L 1015.812511 34.788301 
L 1017.395983 36.987045 
L 1018.979455 45.741706 
L 1020.562927 44.391746 
L 1022.146399 46.575386 
L 1023.729872 59.950433 
L 1025.313344 105.8608 
L 1026.896816 223.339788 
L 1028.480288 231.855198 
L 1030.06376 246.624285 
L 1031.647233 252.17906 
L 1033.230705 254.560408 
L 1034.814177 257.56887 
L 1036.397649 260.029558 
L 1037.981121 264.044207 
L 1039.564594 265.227954 
L 1041.148066 263.629904 
L 1042.731538 266.292066 
L 1044.31501 265.471 
L 1045.898482 265.599446 
L 1047.481955 266.12835 
L 1049.065427 266.411701 
L 1050.648899 265.30225 
L 1052.232371 266.710155 
L 1055.399316 265.734194 
L 1056.982788 265.607007 
L 1058.56626 266.571631 
L 1060.149732 266.424287 
L 1061.733205 262.199335 
L 1063.316677 264.075692 
L 1064.900149 339.487724 
L 1066.483621 356.057614 
L 1068.067093 281.43643 
L 1069.650566 266.372655 
L 1071.234038 266.95446 
L 1072.81751 266.386509 
L 1074.400982 267.445586 
L 1075.984454 267.637001 
L 1079.151399 267.524917 
L 1080.734871 267.085422 
L 1082.318343 266.867567 
L 1083.901815 267.319649 
L 1085.485288 267.196238 
L 1087.06876 265.460922 
L 1088.652232 265.187659 
L 1090.235704 265.146096 
L 1091.819176 265.957093 
L 1093.402649 265.943238 
L 1094.986121 266.535112 
L 1096.569593 265.73797 
L 1098.153065 265.588109 
L 1099.736537 264.092063 
L 1101.32001 262.116218 
L 1102.903482 252.967392 
L 1104.486954 235.019824 
L 1106.070426 200.169911 
L 1106.070426 200.169911 
" clip-path="url(#p0e838e3605)" style="fill: none; stroke: #237ec5; stroke-width: 3; stroke-linecap: square"/>
   </g>
   <g id="patch_3">
    <path d="M -3360.904666 404.12 
L -3360.904666 10.8 
L -3354.570777 10.8 
L -3354.570777 404.12 
z
" clip-path="url(#p0e838e3605)" style="fill: #008000; opacity: 0.25; stroke: #008000; stroke-linejoin: miter"/>
   </g>
   <g id="patch_4">
    <path d="M -3506.584109 404.12 
L -3506.584109 10.8 
L -3462.246887 10.8 
L -3462.246887 404.12 
z
" clip-path="url(#p0e838e3605)" style="fill: #008000; opacity: 0.25; stroke: #008000; stroke-linejoin: miter"/>
   </g>
   <g id="patch_5">
    <path d="M -3208.891334 404.12 
L -3208.891334 10.8 
L -3202.557445 10.8 
L -3202.557445 404.12 
z
" clip-path="url(#p0e838e3605)" style="fill: #008000; opacity: 0.25; stroke: #008000; stroke-linejoin: miter"/>
   </g>
   <g id="patch_6">
    <path d="M -3354.570777 404.12 
L -3354.570777 10.8 
L -3310.233555 10.8 
L -3310.233555 404.12 
z
" clip-path="url(#p0e838e3605)" style="fill: #008000; opacity: 0.25; stroke: #008000; stroke-linejoin: miter"/>
   </g>
   <g id="patch_7">
    <path d="M -3056.878002 404.12 
L -3056.878002 10.8 
L -3050.544113 10.8 
L -3050.544113 404.12 
z
" clip-path="url(#p0e838e3605)" style="fill: #008000; opacity: 0.25; stroke: #008000; stroke-linejoin: miter"/>
   </g>
   <g id="patch_8">
    <path d="M -3202.557445 404.12 
L -3202.557445 10.8 
L -3158.220223 10.8 
L -3158.220223 404.12 
z
" clip-path="url(#p0e838e3605)" style="fill: #008000; opacity: 0.25; stroke: #008000; stroke-linejoin: miter"/>
   </g>
   <g id="patch_9">
    <path d="M -2904.86467 404.12 
L -2904.86467 10.8 
L -2898.530782 10.8 
L -2898.530782 404.12 
z
" clip-path="url(#p0e838e3605)" style="fill: #008000; opacity: 0.25; stroke: #008000; stroke-linejoin: miter"/>
   </g>
   <g id="patch_10">
    <path d="M -3050.544113 404.12 
L -3050.544113 10.8 
L -3006.206892 10.8 
L -3006.206892 404.12 
z
" clip-path="url(#p0e838e3605)" style="fill: #008000; opacity: 0.25; stroke: #008000; stroke-linejoin: miter"/>
   </g>
   <g id="patch_11">
    <path d="M -2752.851339 404.12 
L -2752.851339 10.8 
L -2746.51745 10.8 
L -2746.51745 404.12 
z
" clip-path="url(#p0e838e3605)" style="fill: #008000; opacity: 0.25; stroke: #008000; stroke-linejoin: miter"/>
   </g>
   <g id="patch_12">
    <path d="M -2898.530782 404.12 
L -2898.530782 10.8 
L -2854.19356 10.8 
L -2854.19356 404.12 
z
" clip-path="url(#p0e838e3605)" style="fill: #008000; opacity: 0.25; stroke: #008000; stroke-linejoin: miter"/>
   </g>
   <g id="patch_13">
    <path d="M -2600.838007 404.12 
L -2600.838007 10.8 
L -2594.504118 10.8 
L -2594.504118 404.12 
z
" clip-path="url(#p0e838e3605)" style="fill: #008000; opacity: 0.25; stroke: #008000; stroke-linejoin: miter"/>
   </g>
   <g id="patch_14">
    <path d="M -2746.51745 404.12 
L -2746.51745 10.8 
L -2702.180228 10.8 
L -2702.180228 404.12 
z
" clip-path="url(#p0e838e3605)" style="fill: #008000; opacity: 0.25; stroke: #008000; stroke-linejoin: miter"/>
   </g>
   <g id="patch_15">
    <path d="M -2448.824675 404.12 
L -2448.824675 10.8 
L -2442.490786 10.8 
L -2442.490786 404.12 
z
" clip-path="url(#p0e838e3605)" style="fill: #008000; opacity: 0.25; stroke: #008000; stroke-linejoin: miter"/>
   </g>
   <g id="patch_16">
    <path d="M -2594.504118 404.12 
L -2594.504118 10.8 
L -2550.166896 10.8 
L -2550.166896 404.12 
z
" clip-path="url(#p0e838e3605)" style="fill: #008000; opacity: 0.25; stroke: #008000; stroke-linejoin: miter"/>
   </g>
   <g id="patch_17">
    <path d="M -2296.811344 404.12 
L -2296.811344 10.8 
L -2290.477455 10.8 
L -2290.477455 404.12 
z
" clip-path="url(#p0e838e3605)" style="fill: #008000; opacity: 0.25; stroke: #008000; stroke-linejoin: miter"/>
   </g>
   <g id="patch_18">
    <path d="M -2442.490786 404.12 
L -2442.490786 10.8 
L -2398.153565 10.8 
L -2398.153565 404.12 
z
" clip-path="url(#p0e838e3605)" style="fill: #008000; opacity: 0.25; stroke: #008000; stroke-linejoin: miter"/>
   </g>
   <g id="patch_19">
    <path d="M -2144.798012 404.12 
L -2144.798012 10.8 
L -2138.464123 10.8 
L -2138.464123 404.12 
z
" clip-path="url(#p0e838e3605)" style="fill: #008000; opacity: 0.25; stroke: #008000; stroke-linejoin: miter"/>
   </g>
   <g id="patch_20">
    <path d="M -2290.477455 404.12 
L -2290.477455 10.8 
L -2246.140233 10.8 
L -2246.140233 404.12 
z
" clip-path="url(#p0e838e3605)" style="fill: #008000; opacity: 0.25; stroke: #008000; stroke-linejoin: miter"/>
   </g>
   <g id="patch_21">
    <path d="M -1992.78468 404.12 
L -1992.78468 10.8 
L -1986.450791 10.8 
L -1986.450791 404.12 
z
" clip-path="url(#p0e838e3605)" style="fill: #008000; opacity: 0.25; stroke: #008000; stroke-linejoin: miter"/>
   </g>
   <g id="patch_22">
    <path d="M -2138.464123 404.12 
L -2138.464123 10.8 
L -2094.126901 10.8 
L -2094.126901 404.12 
z
" clip-path="url(#p0e838e3605)" style="fill: #008000; opacity: 0.25; stroke: #008000; stroke-linejoin: miter"/>
   </g>
   <g id="patch_23">
    <path d="M -1840.771348 404.12 
L -1840.771348 10.8 
L -1834.437459 10.8 
L -1834.437459 404.12 
z
" clip-path="url(#p0e838e3605)" style="fill: #008000; opacity: 0.25; stroke: #008000; stroke-linejoin: miter"/>
   </g>
   <g id="patch_24">
    <path d="M -1986.450791 404.12 
L -1986.450791 10.8 
L -1942.113569 10.8 
L -1942.113569 404.12 
z
" clip-path="url(#p0e838e3605)" style="fill: #008000; opacity: 0.25; stroke: #008000; stroke-linejoin: miter"/>
   </g>
   <g id="patch_25">
    <path d="M -1688.758017 404.12 
L -1688.758017 10.8 
L -1682.424128 10.8 
L -1682.424128 404.12 
z
" clip-path="url(#p0e838e3605)" style="fill: #008000; opacity: 0.25; stroke: #008000; stroke-linejoin: miter"/>
   </g>
   <g id="patch_26">
    <path d="M -1834.437459 404.12 
L -1834.437459 10.8 
L -1790.100238 10.8 
L -1790.100238 404.12 
z
" clip-path="url(#p0e838e3605)" style="fill: #008000; opacity: 0.25; stroke: #008000; stroke-linejoin: miter"/>
   </g>
   <g id="patch_27">
    <path d="M -1536.744685 404.12 
L -1536.744685 10.8 
L -1530.410796 10.8 
L -1530.410796 404.12 
z
" clip-path="url(#p0e838e3605)" style="fill: #008000; opacity: 0.25; stroke: #008000; stroke-linejoin: miter"/>
   </g>
   <g id="patch_28">
    <path d="M -1682.424128 404.12 
L -1682.424128 10.8 
L -1638.086906 10.8 
L -1638.086906 404.12 
z
" clip-path="url(#p0e838e3605)" style="fill: #008000; opacity: 0.25; stroke: #008000; stroke-linejoin: miter"/>
   </g>
   <g id="patch_29">
    <path d="M -1384.731353 404.12 
L -1384.731353 10.8 
L -1378.397464 10.8 
L -1378.397464 404.12 
z
" clip-path="url(#p0e838e3605)" style="fill: #008000; opacity: 0.25; stroke: #008000; stroke-linejoin: miter"/>
   </g>
   <g id="patch_30">
    <path d="M -1530.410796 404.12 
L -1530.410796 10.8 
L -1486.073574 10.8 
L -1486.073574 404.12 
z
" clip-path="url(#p0e838e3605)" style="fill: #008000; opacity: 0.25; stroke: #008000; stroke-linejoin: miter"/>
   </g>
   <g id="patch_31">
    <path d="M -1232.718021 404.12 
L -1232.718021 10.8 
L -1226.384133 10.8 
L -1226.384133 404.12 
z
" clip-path="url(#p0e838e3605)" style="fill: #008000; opacity: 0.25; stroke: #008000; stroke-linejoin: miter"/>
   </g>
   <g id="patch_32">
    <path d="M -1378.397464 404.12 
L -1378.397464 10.8 
L -1334.060243 10.8 
L -1334.060243 404.12 
z
" clip-path="url(#p0e838e3605)" style="fill: #008000; opacity: 0.25; stroke: #008000; stroke-linejoin: miter"/>
   </g>
   <g id="patch_33">
    <path d="M -1080.70469 404.12 
L -1080.70469 10.8 
L -1074.370801 10.8 
L -1074.370801 404.12 
z
" clip-path="url(#p0e838e3605)" style="fill: #008000; opacity: 0.25; stroke: #008000; stroke-linejoin: miter"/>
   </g>
   <g id="patch_34">
    <path d="M -1226.384133 404.12 
L -1226.384133 10.8 
L -1182.046911 10.8 
L -1182.046911 404.12 
z
" clip-path="url(#p0e838e3605)" style="fill: #008000; opacity: 0.25; stroke: #008000; stroke-linejoin: miter"/>
   </g>
   <g id="patch_35">
    <path d="M -928.691358 404.12 
L -928.691358 10.8 
L -922.357469 10.8 
L -922.357469 404.12 
z
" clip-path="url(#p0e838e3605)" style="fill: #008000; opacity: 0.25; stroke: #008000; stroke-linejoin: miter"/>
   </g>
   <g id="patch_36">
    <path d="M -1074.370801 404.12 
L -1074.370801 10.8 
L -1030.033579 10.8 
L -1030.033579 404.12 
z
" clip-path="url(#p0e838e3605)" style="fill: #008000; opacity: 0.25; stroke: #008000; stroke-linejoin: miter"/>
   </g>
   <g id="patch_37">
    <path d="M -776.678026 404.12 
L -776.678026 10.8 
L -770.344137 10.8 
L -770.344137 404.12 
z
" clip-path="url(#p0e838e3605)" style="fill: #008000; opacity: 0.25; stroke: #008000; stroke-linejoin: miter"/>
   </g>
   <g id="patch_38">
    <path d="M -922.357469 404.12 
L -922.357469 10.8 
L -878.020247 10.8 
L -878.020247 404.12 
z
" clip-path="url(#p0e838e3605)" style="fill: #008000; opacity: 0.25; stroke: #008000; stroke-linejoin: miter"/>
   </g>
   <g id="patch_39">
    <path d="M -624.664694 404.12 
L -624.664694 10.8 
L -618.330806 10.8 
L -618.330806 404.12 
z
" clip-path="url(#p0e838e3605)" style="fill: #008000; opacity: 0.25; stroke: #008000; stroke-linejoin: miter"/>
   </g>
   <g id="patch_40">
    <path d="M -770.344137 404.12 
L -770.344137 10.8 
L -726.006916 10.8 
L -726.006916 404.12 
z
" clip-path="url(#p0e838e3605)" style="fill: #008000; opacity: 0.25; stroke: #008000; stroke-linejoin: miter"/>
   </g>
   <g id="patch_41">
    <path d="M -472.651363 404.12 
L -472.651363 10.8 
L -466.317474 10.8 
L -466.317474 404.12 
z
" clip-path="url(#p0e838e3605)" style="fill: #008000; opacity: 0.25; stroke: #008000; stroke-linejoin: miter"/>
   </g>
   <g id="patch_42">
    <path d="M -618.330806 404.12 
L -618.330806 10.8 
L -573.993584 10.8 
L -573.993584 404.12 
z
" clip-path="url(#p0e838e3605)" style="fill: #008000; opacity: 0.25; stroke: #008000; stroke-linejoin: miter"/>
   </g>
   <g id="patch_43">
    <path d="M -320.638031 404.12 
L -320.638031 10.8 
L -314.304142 10.8 
L -314.304142 404.12 
z
" clip-path="url(#p0e838e3605)" style="fill: #008000; opacity: 0.25; stroke: #008000; stroke-linejoin: miter"/>
   </g>
   <g id="patch_44">
    <path d="M -466.317474 404.12 
L -466.317474 10.8 
L -421.980252 10.8 
L -421.980252 404.12 
z
" clip-path="url(#p0e838e3605)" style="fill: #008000; opacity: 0.25; stroke: #008000; stroke-linejoin: miter"/>
   </g>
   <g id="patch_45">
    <path d="M -168.624699 404.12 
L -168.624699 10.8 
L -162.29081 10.8 
L -162.29081 404.12 
z
" clip-path="url(#p0e838e3605)" style="fill: #008000; opacity: 0.25; stroke: #008000; stroke-linejoin: miter"/>
   </g>
   <g id="patch_46">
    <path d="M -314.304142 404.12 
L -314.304142 10.8 
L -269.96692 10.8 
L -269.96692 404.12 
z
" clip-path="url(#p0e838e3605)" style="fill: #008000; opacity: 0.25; stroke: #008000; stroke-linejoin: miter"/>
   </g>
   <g id="patch_47">
    <path d="M -16.611367 404.12 
L -16.611367 10.8 
L -10.277479 10.8 
L -10.277479 404.12 
z
" clip-path="url(#p0e838e3605)" style="fill: #008000; opacity: 0.25; stroke: #008000; stroke-linejoin: miter"/>
   </g>
   <g id="patch_48">
    <path d="M -162.29081 404.12 
L -162.29081 10.8 
L -117.953589 10.8 
L -117.953589 404.12 
z
" clip-path="url(#p0e838e3605)" style="fill: #008000; opacity: 0.25; stroke: #008000; stroke-linejoin: miter"/>
   </g>
   <g id="patch_49">
    <path d="M 135.401964 404.12 
L 135.401964 10.8 
L 141.735853 10.8 
L 141.735853 404.12 
z
" clip-path="url(#p0e838e3605)" style="fill: #008000; opacity: 0.25; stroke: #008000; stroke-linejoin: miter"/>
   </g>
   <g id="patch_50">
    <path d="M -10.277479 404.12 
L -10.277479 10.8 
L 34.059743 10.8 
L 34.059743 404.12 
z
" clip-path="url(#p0e838e3605)" style="fill: #008000; opacity: 0.25; stroke: #008000; stroke-linejoin: miter"/>
   </g>
   <g id="patch_51">
    <path d="M 287.415296 404.12 
L 287.415296 10.8 
L 293.749185 10.8 
L 293.749185 404.12 
z
" clip-path="url(#p0e838e3605)" style="fill: #008000; opacity: 0.25; stroke: #008000; stroke-linejoin: miter"/>
   </g>
   <g id="patch_52">
    <path d="M 141.735853 404.12 
L 141.735853 10.8 
L 186.073075 10.8 
L 186.073075 404.12 
z
" clip-path="url(#p0e838e3605)" style="fill: #008000; opacity: 0.25; stroke: #008000; stroke-linejoin: miter"/>
   </g>
   <g id="patch_53">
    <path d="M 439.428628 404.12 
L 439.428628 10.8 
L 445.762517 10.8 
L 445.762517 404.12 
z
" clip-path="url(#p0e838e3605)" style="fill: #008000; opacity: 0.25; stroke: #008000; stroke-linejoin: miter"/>
   </g>
   <g id="patch_54">
    <path d="M 293.749185 404.12 
L 293.749185 10.8 
L 338.086407 10.8 
L 338.086407 404.12 
z
" clip-path="url(#p0e838e3605)" style="fill: #008000; opacity: 0.25; stroke: #008000; stroke-linejoin: miter"/>
   </g>
   <g id="patch_55">
    <path d="M 591.441959 404.12 
L 591.441959 10.8 
L 597.775848 10.8 
L 597.775848 404.12 
z
" clip-path="url(#p0e838e3605)" style="fill: #008000; opacity: 0.25; stroke: #008000; stroke-linejoin: miter"/>
   </g>
   <g id="patch_56">
    <path d="M 445.762517 404.12 
L 445.762517 10.8 
L 490.099738 10.8 
L 490.099738 404.12 
z
" clip-path="url(#p0e838e3605)" style="fill: #008000; opacity: 0.25; stroke: #008000; stroke-linejoin: miter"/>
   </g>
   <g id="patch_57">
    <path d="M 743.455291 404.12 
L 743.455291 10.8 
L 749.78918 10.8 
L 749.78918 404.12 
z
" clip-path="url(#p0e838e3605)" style="fill: #008000; opacity: 0.25; stroke: #008000; stroke-linejoin: miter"/>
   </g>
   <g id="patch_58">
    <path d="M 597.775848 404.12 
L 597.775848 10.8 
L 642.11307 10.8 
L 642.11307 404.12 
z
" clip-path="url(#p0e838e3605)" style="fill: #008000; opacity: 0.25; stroke: #008000; stroke-linejoin: miter"/>
   </g>
   <g id="patch_59">
    <path d="M 895.468623 404.12 
L 895.468623 10.8 
L 901.802512 10.8 
L 901.802512 404.12 
z
" clip-path="url(#p0e838e3605)" style="fill: #008000; opacity: 0.25; stroke: #008000; stroke-linejoin: miter"/>
   </g>
   <g id="patch_60">
    <path d="M 749.78918 404.12 
L 749.78918 10.8 
L 794.126402 10.8 
L 794.126402 404.12 
z
" clip-path="url(#p0e838e3605)" style="fill: #008000; opacity: 0.25; stroke: #008000; stroke-linejoin: miter"/>
   </g>
   <g id="patch_61">
    <path d="M 1047.481955 404.12 
L 1047.481955 10.8 
L 1053.815843 10.8 
L 1053.815843 404.12 
z
" clip-path="url(#p0e838e3605)" style="fill: #008000; opacity: 0.25; stroke: #008000; stroke-linejoin: miter"/>
   </g>
   <g id="patch_62">
    <path d="M 901.802512 404.12 
L 901.802512 10.8 
L 946.139733 10.8 
L 946.139733 404.12 
z
" clip-path="url(#p0e838e3605)" style="fill: #008000; opacity: 0.25; stroke: #008000; stroke-linejoin: miter"/>
   </g>
   <g id="patch_63">
    <path d="M 1199.495286 404.12 
L 1199.495286 10.8 
L 1205.829175 10.8 
L 1205.829175 404.12 
z
" clip-path="url(#p0e838e3605)" style="fill: #008000; opacity: 0.25; stroke: #008000; stroke-linejoin: miter"/>
   </g>
   <g id="patch_64">
    <path d="M 1053.815843 404.12 
L 1053.815843 10.8 
L 1098.153065 10.8 
L 1098.153065 404.12 
z
" clip-path="url(#p0e838e3605)" style="fill: #008000; opacity: 0.25; stroke: #008000; stroke-linejoin: miter"/>
   </g>
   <g id="matplotlib.axis_1">
    <g id="xtick_1">
     <g id="line2d_2">
      <defs>
       <path id="mb2c927ff3b" d="M 0 0 
L 0 3.5 
" style="stroke: #000000; stroke-width: 0.8"/>
      </defs>
      <g>
       <use xlink:href="#mb2c927ff3b" x="141.735853" y="404.12" style="stroke: #000000; stroke-width: 0.8"/>
      </g>
     </g>
     <g id="text_1">
      <!-- miércoles - 11 -->
      <g transform="translate(99.133041 420.238125)scale(0.12 -0.12)">
       <defs>
        <path id="DejaVuSans-6d" d="M 3328 2828 
Q 3544 3216 3844 3400 
Q 4144 3584 4550 3584 
Q 5097 3584 5394 3201 
Q 5691 2819 5691 2113 
L 5691 0 
L 5113 0 
L 5113 2094 
Q 5113 2597 4934 2840 
Q 4756 3084 4391 3084 
Q 3944 3084 3684 2787 
Q 3425 2491 3425 1978 
L 3425 0 
L 2847 0 
L 2847 2094 
Q 2847 2600 2669 2842 
Q 2491 3084 2119 3084 
Q 1678 3084 1418 2786 
Q 1159 2488 1159 1978 
L 1159 0 
L 581 0 
L 581 3500 
L 1159 3500 
L 1159 2956 
Q 1356 3278 1631 3431 
Q 1906 3584 2284 3584 
Q 2666 3584 2933 3390 
Q 3200 3197 3328 2828 
z
" transform="scale(0.015625)"/>
        <path id="DejaVuSans-69" d="M 603 3500 
L 1178 3500 
L 1178 0 
L 603 0 
L 603 3500 
z
M 603 4863 
L 1178 4863 
L 1178 4134 
L 603 4134 
L 603 4863 
z
" transform="scale(0.015625)"/>
        <path id="DejaVuSans-e9" d="M 3597 1894 
L 3597 1613 
L 953 1613 
Q 991 1019 1311 708 
Q 1631 397 2203 397 
Q 2534 397 2845 478 
Q 3156 559 3463 722 
L 3463 178 
Q 3153 47 2828 -22 
Q 2503 -91 2169 -91 
Q 1331 -91 842 396 
Q 353 884 353 1716 
Q 353 2575 817 3079 
Q 1281 3584 2069 3584 
Q 2775 3584 3186 3129 
Q 3597 2675 3597 1894 
z
M 3022 2063 
Q 3016 2534 2758 2815 
Q 2500 3097 2075 3097 
Q 1594 3097 1305 2825 
Q 1016 2553 972 2059 
L 3022 2063 
z
M 2469 5119 
L 3091 5119 
L 2072 3944 
L 1594 3944 
L 2469 5119 
z
" transform="scale(0.015625)"/>
        <path id="DejaVuSans-72" d="M 2631 2963 
Q 2534 3019 2420 3045 
Q 2306 3072 2169 3072 
Q 1681 3072 1420 2755 
Q 1159 2438 1159 1844 
L 1159 0 
L 581 0 
L 581 3500 
L 1159 3500 
L 1159 2956 
Q 1341 3275 1631 3429 
Q 1922 3584 2338 3584 
Q 2397 3584 2469 3576 
Q 2541 3569 2628 3553 
L 2631 2963 
z
" transform="scale(0.015625)"/>
        <path id="DejaVuSans-63" d="M 3122 3366 
L 3122 2828 
Q 2878 2963 2633 3030 
Q 2388 3097 2138 3097 
Q 1578 3097 1268 2742 
Q 959 2388 959 1747 
Q 959 1106 1268 751 
Q 1578 397 2138 397 
Q 2388 397 2633 464 
Q 2878 531 3122 666 
L 3122 134 
Q 2881 22 2623 -34 
Q 2366 -91 2075 -91 
Q 1284 -91 818 406 
Q 353 903 353 1747 
Q 353 2603 823 3093 
Q 1294 3584 2113 3584 
Q 2378 3584 2631 3529 
Q 2884 3475 3122 3366 
z
" transform="scale(0.015625)"/>
        <path id="DejaVuSans-6f" d="M 1959 3097 
Q 1497 3097 1228 2736 
Q 959 2375 959 1747 
Q 959 1119 1226 758 
Q 1494 397 1959 397 
Q 2419 397 2687 759 
Q 2956 1122 2956 1747 
Q 2956 2369 2687 2733 
Q 2419 3097 1959 3097 
z
M 1959 3584 
Q 2709 3584 3137 3096 
Q 3566 2609 3566 1747 
Q 3566 888 3137 398 
Q 2709 -91 1959 -91 
Q 1206 -91 779 398 
Q 353 888 353 1747 
Q 353 2609 779 3096 
Q 1206 3584 1959 3584 
z
" transform="scale(0.015625)"/>
        <path id="DejaVuSans-6c" d="M 603 4863 
L 1178 4863 
L 1178 0 
L 603 0 
L 603 4863 
z
" transform="scale(0.015625)"/>
        <path id="DejaVuSans-65" d="M 3597 1894 
L 3597 1613 
L 953 1613 
Q 991 1019 1311 708 
Q 1631 397 2203 397 
Q 2534 397 2845 478 
Q 3156 559 3463 722 
L 3463 178 
Q 3153 47 2828 -22 
Q 2503 -91 2169 -91 
Q 1331 -91 842 396 
Q 353 884 353 1716 
Q 353 2575 817 3079 
Q 1281 3584 2069 3584 
Q 2775 3584 3186 3129 
Q 3597 2675 3597 1894 
z
M 3022 2063 
Q 3016 2534 2758 2815 
Q 2500 3097 2075 3097 
Q 1594 3097 1305 2825 
Q 1016 2553 972 2059 
L 3022 2063 
z
" transform="scale(0.015625)"/>
        <path id="DejaVuSans-73" d="M 2834 3397 
L 2834 2853 
Q 2591 2978 2328 3040 
Q 2066 3103 1784 3103 
Q 1356 3103 1142 2972 
Q 928 2841 928 2578 
Q 928 2378 1081 2264 
Q 1234 2150 1697 2047 
L 1894 2003 
Q 2506 1872 2764 1633 
Q 3022 1394 3022 966 
Q 3022 478 2636 193 
Q 2250 -91 1575 -91 
Q 1294 -91 989 -36 
Q 684 19 347 128 
L 347 722 
Q 666 556 975 473 
Q 1284 391 1588 391 
Q 1994 391 2212 530 
Q 2431 669 2431 922 
Q 2431 1156 2273 1281 
Q 2116 1406 1581 1522 
L 1381 1569 
Q 847 1681 609 1914 
Q 372 2147 372 2553 
Q 372 3047 722 3315 
Q 1072 3584 1716 3584 
Q 2034 3584 2315 3537 
Q 2597 3491 2834 3397 
z
" transform="scale(0.015625)"/>
        <path id="DejaVuSans-20" transform="scale(0.015625)"/>
        <path id="DejaVuSans-2d" d="M 313 2009 
L 1997 2009 
L 1997 1497 
L 313 1497 
L 313 2009 
z
" transform="scale(0.015625)"/>
        <path id="DejaVuSans-31" d="M 794 531 
L 1825 531 
L 1825 4091 
L 703 3866 
L 703 4441 
L 1819 4666 
L 2450 4666 
L 2450 531 
L 3481 531 
L 3481 0 
L 794 0 
L 794 531 
z
" transform="scale(0.015625)"/>
       </defs>
       <use xlink:href="#DejaVuSans-6d"/>
       <use xlink:href="#DejaVuSans-69" x="97.412109"/>
       <use xlink:href="#DejaVuSans-e9" x="125.195312"/>
       <use xlink:href="#DejaVuSans-72" x="186.71875"/>
       <use xlink:href="#DejaVuSans-63" x="225.582031"/>
       <use xlink:href="#DejaVuSans-6f" x="280.5625"/>
       <use xlink:href="#DejaVuSans-6c" x="341.744141"/>
       <use xlink:href="#DejaVuSans-65" x="369.527344"/>
       <use xlink:href="#DejaVuSans-73" x="431.050781"/>
       <use xlink:href="#DejaVuSans-20" x="483.150391"/>
       <use xlink:href="#DejaVuSans-2d" x="514.9375"/>
       <use xlink:href="#DejaVuSans-20" x="551.021484"/>
       <use xlink:href="#DejaVuSans-31" x="582.808594"/>
       <use xlink:href="#DejaVuSans-31" x="646.431641"/>
      </g>
     </g>
    </g>
    <g id="xtick_2">
     <g id="line2d_3">
      <g>
       <use xlink:href="#mb2c927ff3b" x="293.749185" y="404.12" style="stroke: #000000; stroke-width: 0.8"/>
      </g>
     </g>
     <g id="text_2">
      <!-- jueves - 12 -->
      <g transform="translate(260.605747 420.238125)scale(0.12 -0.12)">
       <defs>
        <path id="DejaVuSans-6a" d="M 603 3500 
L 1178 3500 
L 1178 -63 
Q 1178 -731 923 -1031 
Q 669 -1331 103 -1331 
L -116 -1331 
L -116 -844 
L 38 -844 
Q 366 -844 484 -692 
Q 603 -541 603 -63 
L 603 3500 
z
M 603 4863 
L 1178 4863 
L 1178 4134 
L 603 4134 
L 603 4863 
z
" transform="scale(0.015625)"/>
        <path id="DejaVuSans-75" d="M 544 1381 
L 544 3500 
L 1119 3500 
L 1119 1403 
Q 1119 906 1312 657 
Q 1506 409 1894 409 
Q 2359 409 2629 706 
Q 2900 1003 2900 1516 
L 2900 3500 
L 3475 3500 
L 3475 0 
L 2900 0 
L 2900 538 
Q 2691 219 2414 64 
Q 2138 -91 1772 -91 
Q 1169 -91 856 284 
Q 544 659 544 1381 
z
M 1991 3584 
L 1991 3584 
z
" transform="scale(0.015625)"/>
        <path id="DejaVuSans-76" d="M 191 3500 
L 800 3500 
L 1894 563 
L 2988 3500 
L 3597 3500 
L 2284 0 
L 1503 0 
L 191 3500 
z
" transform="scale(0.015625)"/>
        <path id="DejaVuSans-32" d="M 1228 531 
L 3431 531 
L 3431 0 
L 469 0 
L 469 531 
Q 828 903 1448 1529 
Q 2069 2156 2228 2338 
Q 2531 2678 2651 2914 
Q 2772 3150 2772 3378 
Q 2772 3750 2511 3984 
Q 2250 4219 1831 4219 
Q 1534 4219 1204 4116 
Q 875 4013 500 3803 
L 500 4441 
Q 881 4594 1212 4672 
Q 1544 4750 1819 4750 
Q 2544 4750 2975 4387 
Q 3406 4025 3406 3419 
Q 3406 3131 3298 2873 
Q 3191 2616 2906 2266 
Q 2828 2175 2409 1742 
Q 1991 1309 1228 531 
z
" transform="scale(0.015625)"/>
       </defs>
       <use xlink:href="#DejaVuSans-6a"/>
       <use xlink:href="#DejaVuSans-75" x="27.783203"/>
       <use xlink:href="#DejaVuSans-65" x="91.162109"/>
       <use xlink:href="#DejaVuSans-76" x="152.685547"/>
       <use xlink:href="#DejaVuSans-65" x="211.865234"/>
       <use xlink:href="#DejaVuSans-73" x="273.388672"/>
       <use xlink:href="#DejaVuSans-20" x="325.488281"/>
       <use xlink:href="#DejaVuSans-2d" x="357.275391"/>
       <use xlink:href="#DejaVuSans-20" x="393.359375"/>
       <use xlink:href="#DejaVuSans-31" x="425.146484"/>
       <use xlink:href="#DejaVuSans-32" x="488.769531"/>
      </g>
     </g>
    </g>
    <g id="xtick_3">
     <g id="line2d_4">
      <g>
       <use xlink:href="#mb2c927ff3b" x="445.762517" y="404.12" style="stroke: #000000; stroke-width: 0.8"/>
      </g>
     </g>
     <g id="text_3">
      <!-- viernes - 13 -->
      <g transform="translate(410.257517 420.238125)scale(0.12 -0.12)">
       <defs>
        <path id="DejaVuSans-6e" d="M 3513 2113 
L 3513 0 
L 2938 0 
L 2938 2094 
Q 2938 2591 2744 2837 
Q 2550 3084 2163 3084 
Q 1697 3084 1428 2787 
Q 1159 2491 1159 1978 
L 1159 0 
L 581 0 
L 581 3500 
L 1159 3500 
L 1159 2956 
Q 1366 3272 1645 3428 
Q 1925 3584 2291 3584 
Q 2894 3584 3203 3211 
Q 3513 2838 3513 2113 
z
" transform="scale(0.015625)"/>
        <path id="DejaVuSans-33" d="M 2597 2516 
Q 3050 2419 3304 2112 
Q 3559 1806 3559 1356 
Q 3559 666 3084 287 
Q 2609 -91 1734 -91 
Q 1441 -91 1130 -33 
Q 819 25 488 141 
L 488 750 
Q 750 597 1062 519 
Q 1375 441 1716 441 
Q 2309 441 2620 675 
Q 2931 909 2931 1356 
Q 2931 1769 2642 2001 
Q 2353 2234 1838 2234 
L 1294 2234 
L 1294 2753 
L 1863 2753 
Q 2328 2753 2575 2939 
Q 2822 3125 2822 3475 
Q 2822 3834 2567 4026 
Q 2313 4219 1838 4219 
Q 1578 4219 1281 4162 
Q 984 4106 628 3988 
L 628 4550 
Q 988 4650 1302 4700 
Q 1616 4750 1894 4750 
Q 2613 4750 3031 4423 
Q 3450 4097 3450 3541 
Q 3450 3153 3228 2886 
Q 3006 2619 2597 2516 
z
" transform="scale(0.015625)"/>
       </defs>
       <use xlink:href="#DejaVuSans-76"/>
       <use xlink:href="#DejaVuSans-69" x="59.179688"/>
       <use xlink:href="#DejaVuSans-65" x="86.962891"/>
       <use xlink:href="#DejaVuSans-72" x="148.486328"/>
       <use xlink:href="#DejaVuSans-6e" x="187.849609"/>
       <use xlink:href="#DejaVuSans-65" x="251.228516"/>
       <use xlink:href="#DejaVuSans-73" x="312.751953"/>
       <use xlink:href="#DejaVuSans-20" x="364.851562"/>
       <use xlink:href="#DejaVuSans-2d" x="396.638672"/>
       <use xlink:href="#DejaVuSans-20" x="432.722656"/>
       <use xlink:href="#DejaVuSans-31" x="464.509766"/>
       <use xlink:href="#DejaVuSans-33" x="528.132812"/>
      </g>
     </g>
    </g>
    <g id="xtick_4">
     <g id="line2d_5">
      <g>
       <use xlink:href="#mb2c927ff3b" x="597.775848" y="404.12" style="stroke: #000000; stroke-width: 0.8"/>
      </g>
     </g>
     <g id="text_4">
      <!-- sábado - 14 -->
      <g transform="translate(562.393661 420.238125)scale(0.12 -0.12)">
       <defs>
        <path id="DejaVuSans-e1" d="M 2194 1759 
Q 1497 1759 1228 1600 
Q 959 1441 959 1056 
Q 959 750 1161 570 
Q 1363 391 1709 391 
Q 2188 391 2477 730 
Q 2766 1069 2766 1631 
L 2766 1759 
L 2194 1759 
z
M 3341 1997 
L 3341 0 
L 2766 0 
L 2766 531 
Q 2569 213 2275 61 
Q 1981 -91 1556 -91 
Q 1019 -91 701 211 
Q 384 513 384 1019 
Q 384 1609 779 1909 
Q 1175 2209 1959 2209 
L 2766 2209 
L 2766 2266 
Q 2766 2663 2505 2880 
Q 2244 3097 1772 3097 
Q 1472 3097 1187 3025 
Q 903 2953 641 2809 
L 641 3341 
Q 956 3463 1253 3523 
Q 1550 3584 1831 3584 
Q 2591 3584 2966 3190 
Q 3341 2797 3341 1997 
z
M 2291 5119 
L 2913 5119 
L 1894 3944 
L 1416 3944 
L 2291 5119 
z
" transform="scale(0.015625)"/>
        <path id="DejaVuSans-62" d="M 3116 1747 
Q 3116 2381 2855 2742 
Q 2594 3103 2138 3103 
Q 1681 3103 1420 2742 
Q 1159 2381 1159 1747 
Q 1159 1113 1420 752 
Q 1681 391 2138 391 
Q 2594 391 2855 752 
Q 3116 1113 3116 1747 
z
M 1159 2969 
Q 1341 3281 1617 3432 
Q 1894 3584 2278 3584 
Q 2916 3584 3314 3078 
Q 3713 2572 3713 1747 
Q 3713 922 3314 415 
Q 2916 -91 2278 -91 
Q 1894 -91 1617 61 
Q 1341 213 1159 525 
L 1159 0 
L 581 0 
L 581 4863 
L 1159 4863 
L 1159 2969 
z
" transform="scale(0.015625)"/>
        <path id="DejaVuSans-61" d="M 2194 1759 
Q 1497 1759 1228 1600 
Q 959 1441 959 1056 
Q 959 750 1161 570 
Q 1363 391 1709 391 
Q 2188 391 2477 730 
Q 2766 1069 2766 1631 
L 2766 1759 
L 2194 1759 
z
M 3341 1997 
L 3341 0 
L 2766 0 
L 2766 531 
Q 2569 213 2275 61 
Q 1981 -91 1556 -91 
Q 1019 -91 701 211 
Q 384 513 384 1019 
Q 384 1609 779 1909 
Q 1175 2209 1959 2209 
L 2766 2209 
L 2766 2266 
Q 2766 2663 2505 2880 
Q 2244 3097 1772 3097 
Q 1472 3097 1187 3025 
Q 903 2953 641 2809 
L 641 3341 
Q 956 3463 1253 3523 
Q 1550 3584 1831 3584 
Q 2591 3584 2966 3190 
Q 3341 2797 3341 1997 
z
" transform="scale(0.015625)"/>
        <path id="DejaVuSans-64" d="M 2906 2969 
L 2906 4863 
L 3481 4863 
L 3481 0 
L 2906 0 
L 2906 525 
Q 2725 213 2448 61 
Q 2172 -91 1784 -91 
Q 1150 -91 751 415 
Q 353 922 353 1747 
Q 353 2572 751 3078 
Q 1150 3584 1784 3584 
Q 2172 3584 2448 3432 
Q 2725 3281 2906 2969 
z
M 947 1747 
Q 947 1113 1208 752 
Q 1469 391 1925 391 
Q 2381 391 2643 752 
Q 2906 1113 2906 1747 
Q 2906 2381 2643 2742 
Q 2381 3103 1925 3103 
Q 1469 3103 1208 2742 
Q 947 2381 947 1747 
z
" transform="scale(0.015625)"/>
        <path id="DejaVuSans-34" d="M 2419 4116 
L 825 1625 
L 2419 1625 
L 2419 4116 
z
M 2253 4666 
L 3047 4666 
L 3047 1625 
L 3713 1625 
L 3713 1100 
L 3047 1100 
L 3047 0 
L 2419 0 
L 2419 1100 
L 313 1100 
L 313 1709 
L 2253 4666 
z
" transform="scale(0.015625)"/>
       </defs>
       <use xlink:href="#DejaVuSans-73"/>
       <use xlink:href="#DejaVuSans-e1" x="52.099609"/>
       <use xlink:href="#DejaVuSans-62" x="113.378906"/>
       <use xlink:href="#DejaVuSans-61" x="176.855469"/>
       <use xlink:href="#DejaVuSans-64" x="238.134766"/>
       <use xlink:href="#DejaVuSans-6f" x="301.611328"/>
       <use xlink:href="#DejaVuSans-20" x="362.792969"/>
       <use xlink:href="#DejaVuSans-2d" x="394.580078"/>
       <use xlink:href="#DejaVuSans-20" x="430.664062"/>
       <use xlink:href="#DejaVuSans-31" x="462.451172"/>
       <use xlink:href="#DejaVuSans-34" x="526.074219"/>
      </g>
     </g>
    </g>
    <g id="xtick_5">
     <g id="line2d_6">
      <g>
       <use xlink:href="#mb2c927ff3b" x="749.78918" y="404.12" style="stroke: #000000; stroke-width: 0.8"/>
      </g>
     </g>
     <g id="text_5">
      <!-- domingo - 15 -->
      <g transform="translate(709.901368 420.238125)scale(0.12 -0.12)">
       <defs>
        <path id="DejaVuSans-67" d="M 2906 1791 
Q 2906 2416 2648 2759 
Q 2391 3103 1925 3103 
Q 1463 3103 1205 2759 
Q 947 2416 947 1791 
Q 947 1169 1205 825 
Q 1463 481 1925 481 
Q 2391 481 2648 825 
Q 2906 1169 2906 1791 
z
M 3481 434 
Q 3481 -459 3084 -895 
Q 2688 -1331 1869 -1331 
Q 1566 -1331 1297 -1286 
Q 1028 -1241 775 -1147 
L 775 -588 
Q 1028 -725 1275 -790 
Q 1522 -856 1778 -856 
Q 2344 -856 2625 -561 
Q 2906 -266 2906 331 
L 2906 616 
Q 2728 306 2450 153 
Q 2172 0 1784 0 
Q 1141 0 747 490 
Q 353 981 353 1791 
Q 353 2603 747 3093 
Q 1141 3584 1784 3584 
Q 2172 3584 2450 3431 
Q 2728 3278 2906 2969 
L 2906 3500 
L 3481 3500 
L 3481 434 
z
" transform="scale(0.015625)"/>
        <path id="DejaVuSans-35" d="M 691 4666 
L 3169 4666 
L 3169 4134 
L 1269 4134 
L 1269 2991 
Q 1406 3038 1543 3061 
Q 1681 3084 1819 3084 
Q 2600 3084 3056 2656 
Q 3513 2228 3513 1497 
Q 3513 744 3044 326 
Q 2575 -91 1722 -91 
Q 1428 -91 1123 -41 
Q 819 9 494 109 
L 494 744 
Q 775 591 1075 516 
Q 1375 441 1709 441 
Q 2250 441 2565 725 
Q 2881 1009 2881 1497 
Q 2881 1984 2565 2268 
Q 2250 2553 1709 2553 
Q 1456 2553 1204 2497 
Q 953 2441 691 2322 
L 691 4666 
z
" transform="scale(0.015625)"/>
       </defs>
       <use xlink:href="#DejaVuSans-64"/>
       <use xlink:href="#DejaVuSans-6f" x="63.476562"/>
       <use xlink:href="#DejaVuSans-6d" x="124.658203"/>
       <use xlink:href="#DejaVuSans-69" x="222.070312"/>
       <use xlink:href="#DejaVuSans-6e" x="249.853516"/>
       <use xlink:href="#DejaVuSans-67" x="313.232422"/>
       <use xlink:href="#DejaVuSans-6f" x="376.708984"/>
       <use xlink:href="#DejaVuSans-20" x="437.890625"/>
       <use xlink:href="#DejaVuSans-2d" x="469.677734"/>
       <use xlink:href="#DejaVuSans-20" x="505.761719"/>
       <use xlink:href="#DejaVuSans-31" x="537.548828"/>
       <use xlink:href="#DejaVuSans-35" x="601.171875"/>
      </g>
     </g>
    </g>
    <g id="xtick_6">
     <g id="line2d_7">
      <g>
       <use xlink:href="#mb2c927ff3b" x="901.802512" y="404.12" style="stroke: #000000; stroke-width: 0.8"/>
      </g>
     </g>
     <g id="text_6">
      <!-- lunes - 16 -->
      <g transform="translate(872.099699 420.238125)scale(0.12 -0.12)">
       <defs>
        <path id="DejaVuSans-36" d="M 2113 2584 
Q 1688 2584 1439 2293 
Q 1191 2003 1191 1497 
Q 1191 994 1439 701 
Q 1688 409 2113 409 
Q 2538 409 2786 701 
Q 3034 994 3034 1497 
Q 3034 2003 2786 2293 
Q 2538 2584 2113 2584 
z
M 3366 4563 
L 3366 3988 
Q 3128 4100 2886 4159 
Q 2644 4219 2406 4219 
Q 1781 4219 1451 3797 
Q 1122 3375 1075 2522 
Q 1259 2794 1537 2939 
Q 1816 3084 2150 3084 
Q 2853 3084 3261 2657 
Q 3669 2231 3669 1497 
Q 3669 778 3244 343 
Q 2819 -91 2113 -91 
Q 1303 -91 875 529 
Q 447 1150 447 2328 
Q 447 3434 972 4092 
Q 1497 4750 2381 4750 
Q 2619 4750 2861 4703 
Q 3103 4656 3366 4563 
z
" transform="scale(0.015625)"/>
       </defs>
       <use xlink:href="#DejaVuSans-6c"/>
       <use xlink:href="#DejaVuSans-75" x="27.783203"/>
       <use xlink:href="#DejaVuSans-6e" x="91.162109"/>
       <use xlink:href="#DejaVuSans-65" x="154.541016"/>
       <use xlink:href="#DejaVuSans-73" x="216.064453"/>
       <use xlink:href="#DejaVuSans-20" x="268.164062"/>
       <use xlink:href="#DejaVuSans-2d" x="299.951172"/>
       <use xlink:href="#DejaVuSans-20" x="336.035156"/>
       <use xlink:href="#DejaVuSans-31" x="367.822266"/>
       <use xlink:href="#DejaVuSans-36" x="431.445312"/>
      </g>
     </g>
    </g>
    <g id="xtick_7">
     <g id="line2d_8">
      <g>
       <use xlink:href="#mb2c927ff3b" x="1053.815843" y="404.12" style="stroke: #000000; stroke-width: 0.8"/>
      </g>
     </g>
     <g id="text_7">
      <!-- martes - 17 -->
      <g transform="translate(1019.044906 420.238125)scale(0.12 -0.12)">
       <defs>
        <path id="DejaVuSans-74" d="M 1172 4494 
L 1172 3500 
L 2356 3500 
L 2356 3053 
L 1172 3053 
L 1172 1153 
Q 1172 725 1289 603 
Q 1406 481 1766 481 
L 2356 481 
L 2356 0 
L 1766 0 
Q 1100 0 847 248 
Q 594 497 594 1153 
L 594 3053 
L 172 3053 
L 172 3500 
L 594 3500 
L 594 4494 
L 1172 4494 
z
" transform="scale(0.015625)"/>
        <path id="DejaVuSans-37" d="M 525 4666 
L 3525 4666 
L 3525 4397 
L 1831 0 
L 1172 0 
L 2766 4134 
L 525 4134 
L 525 4666 
z
" transform="scale(0.015625)"/>
       </defs>
       <use xlink:href="#DejaVuSans-6d"/>
       <use xlink:href="#DejaVuSans-61" x="97.412109"/>
       <use xlink:href="#DejaVuSans-72" x="158.691406"/>
       <use xlink:href="#DejaVuSans-74" x="199.804688"/>
       <use xlink:href="#DejaVuSans-65" x="239.013672"/>
       <use xlink:href="#DejaVuSans-73" x="300.537109"/>
       <use xlink:href="#DejaVuSans-20" x="352.636719"/>
       <use xlink:href="#DejaVuSans-2d" x="384.423828"/>
       <use xlink:href="#DejaVuSans-20" x="420.507812"/>
       <use xlink:href="#DejaVuSans-31" x="452.294922"/>
       <use xlink:href="#DejaVuSans-37" x="515.917969"/>
      </g>
     </g>
    </g>
   </g>
   <g id="matplotlib.axis_2">
    <g id="ytick_1">
     <g id="line2d_9">
      <defs>
       <path id="m55c9660ac5" d="M 0 0 
L -3.5 0 
" style="stroke: #000000; stroke-width: 0.8"/>
      </defs>
      <g>
       <use xlink:href="#m55c9660ac5" x="51.77" y="359.152978" style="stroke: #000000; stroke-width: 0.8"/>
      </g>
     </g>
     <g id="text_8">
      <!-- 50 -->
      <g transform="translate(29.5 363.71204)scale(0.12 -0.12)">
       <defs>
        <path id="DejaVuSans-30" d="M 2034 4250 
Q 1547 4250 1301 3770 
Q 1056 3291 1056 2328 
Q 1056 1369 1301 889 
Q 1547 409 2034 409 
Q 2525 409 2770 889 
Q 3016 1369 3016 2328 
Q 3016 3291 2770 3770 
Q 2525 4250 2034 4250 
z
M 2034 4750 
Q 2819 4750 3233 4129 
Q 3647 3509 3647 2328 
Q 3647 1150 3233 529 
Q 2819 -91 2034 -91 
Q 1250 -91 836 529 
Q 422 1150 422 2328 
Q 422 3509 836 4129 
Q 1250 4750 2034 4750 
z
" transform="scale(0.015625)"/>
       </defs>
       <use xlink:href="#DejaVuSans-35"/>
       <use xlink:href="#DejaVuSans-30" x="63.623047"/>
      </g>
     </g>
    </g>
    <g id="ytick_2">
     <g id="line2d_10">
      <g>
       <use xlink:href="#m55c9660ac5" x="51.77" y="296.187888" style="stroke: #000000; stroke-width: 0.8"/>
      </g>
     </g>
     <g id="text_9">
      <!-- 100 -->
      <g transform="translate(21.865 300.74695)scale(0.12 -0.12)">
       <use xlink:href="#DejaVuSans-31"/>
       <use xlink:href="#DejaVuSans-30" x="63.623047"/>
       <use xlink:href="#DejaVuSans-30" x="127.246094"/>
      </g>
     </g>
    </g>
    <g id="ytick_3">
     <g id="line2d_11">
      <g>
       <use xlink:href="#m55c9660ac5" x="51.77" y="233.222798" style="stroke: #000000; stroke-width: 0.8"/>
      </g>
     </g>
     <g id="text_10">
      <!-- 150 -->
      <g transform="translate(21.865 237.78186)scale(0.12 -0.12)">
       <use xlink:href="#DejaVuSans-31"/>
       <use xlink:href="#DejaVuSans-35" x="63.623047"/>
       <use xlink:href="#DejaVuSans-30" x="127.246094"/>
      </g>
     </g>
    </g>
    <g id="ytick_4">
     <g id="line2d_12">
      <g>
       <use xlink:href="#m55c9660ac5" x="51.77" y="170.257708" style="stroke: #000000; stroke-width: 0.8"/>
      </g>
     </g>
     <g id="text_11">
      <!-- 200 -->
      <g transform="translate(21.865 174.81677)scale(0.12 -0.12)">
       <use xlink:href="#DejaVuSans-32"/>
       <use xlink:href="#DejaVuSans-30" x="63.623047"/>
       <use xlink:href="#DejaVuSans-30" x="127.246094"/>
      </g>
     </g>
    </g>
    <g id="ytick_5">
     <g id="line2d_13">
      <g>
       <use xlink:href="#m55c9660ac5" x="51.77" y="107.292618" style="stroke: #000000; stroke-width: 0.8"/>
      </g>
     </g>
     <g id="text_12">
      <!-- 250 -->
      <g transform="translate(21.865 111.85168)scale(0.12 -0.12)">
       <use xlink:href="#DejaVuSans-32"/>
       <use xlink:href="#DejaVuSans-35" x="63.623047"/>
       <use xlink:href="#DejaVuSans-30" x="127.246094"/>
      </g>
     </g>
    </g>
    <g id="ytick_6">
     <g id="line2d_14">
      <g>
       <use xlink:href="#m55c9660ac5" x="51.77" y="44.327528" style="stroke: #000000; stroke-width: 0.8"/>
      </g>
     </g>
     <g id="text_13">
      <!-- 300 -->
      <g transform="translate(21.865 48.88659)scale(0.12 -0.12)">
       <use xlink:href="#DejaVuSans-33"/>
       <use xlink:href="#DejaVuSans-30" x="63.623047"/>
       <use xlink:href="#DejaVuSans-30" x="127.246094"/>
      </g>
     </g>
    </g>
    <g id="text_14">
     <!-- Consumo [kW] -->
     <g transform="translate(15.369375 251.562812)rotate(-90)scale(0.12 -0.12)">
      <defs>
       <path id="DejaVuSans-43" d="M 4122 4306 
L 4122 3641 
Q 3803 3938 3442 4084 
Q 3081 4231 2675 4231 
Q 1875 4231 1450 3742 
Q 1025 3253 1025 2328 
Q 1025 1406 1450 917 
Q 1875 428 2675 428 
Q 3081 428 3442 575 
Q 3803 722 4122 1019 
L 4122 359 
Q 3791 134 3420 21 
Q 3050 -91 2638 -91 
Q 1578 -91 968 557 
Q 359 1206 359 2328 
Q 359 3453 968 4101 
Q 1578 4750 2638 4750 
Q 3056 4750 3426 4639 
Q 3797 4528 4122 4306 
z
" transform="scale(0.015625)"/>
       <path id="DejaVuSans-5b" d="M 550 4863 
L 1875 4863 
L 1875 4416 
L 1125 4416 
L 1125 -397 
L 1875 -397 
L 1875 -844 
L 550 -844 
L 550 4863 
z
" transform="scale(0.015625)"/>
       <path id="DejaVuSans-6b" d="M 581 4863 
L 1159 4863 
L 1159 1991 
L 2875 3500 
L 3609 3500 
L 1753 1863 
L 3688 0 
L 2938 0 
L 1159 1709 
L 1159 0 
L 581 0 
L 581 4863 
z
" transform="scale(0.015625)"/>
       <path id="DejaVuSans-57" d="M 213 4666 
L 850 4666 
L 1831 722 
L 2809 4666 
L 3519 4666 
L 4500 722 
L 5478 4666 
L 6119 4666 
L 4947 0 
L 4153 0 
L 3169 4050 
L 2175 0 
L 1381 0 
L 213 4666 
z
" transform="scale(0.015625)"/>
       <path id="DejaVuSans-5d" d="M 1947 4863 
L 1947 -844 
L 622 -844 
L 622 -397 
L 1369 -397 
L 1369 4416 
L 622 4416 
L 622 4863 
L 1947 4863 
z
" transform="scale(0.015625)"/>
      </defs>
      <use xlink:href="#DejaVuSans-43"/>
      <use xlink:href="#DejaVuSans-6f" x="69.824219"/>
      <use xlink:href="#DejaVuSans-6e" x="131.005859"/>
      <use xlink:href="#DejaVuSans-73" x="194.384766"/>
      <use xlink:href="#DejaVuSans-75" x="246.484375"/>
      <use xlink:href="#DejaVuSans-6d" x="309.863281"/>
      <use xlink:href="#DejaVuSans-6f" x="407.275391"/>
      <use xlink:href="#DejaVuSans-20" x="468.457031"/>
      <use xlink:href="#DejaVuSans-5b" x="500.244141"/>
      <use xlink:href="#DejaVuSans-6b" x="539.257812"/>
      <use xlink:href="#DejaVuSans-57" x="597.167969"/>
      <use xlink:href="#DejaVuSans-5d" x="696.044922"/>
     </g>
    </g>
   </g>
   <g id="PathCollection_1">
    <defs>
     <path id="mcba5ceb9f9" d="M 0 4.472136 
C 1.186024 4.472136 2.323632 4.000923 3.162278 3.162278 
C 4.000923 2.323632 4.472136 1.186024 4.472136 0 
C 4.472136 -1.186024 4.000923 -2.323632 3.162278 -3.162278 
C 2.323632 -4.000923 1.186024 -4.472136 0 -4.472136 
C -1.186024 -4.472136 -2.323632 -4.000923 -3.162278 -3.162278 
C -4.000923 -2.323632 -4.472136 -1.186024 -4.472136 0 
C -4.472136 1.186024 -4.000923 2.323632 -3.162278 3.162278 
C -2.323632 4.000923 -1.186024 4.472136 0 4.472136 
z
" style="stroke: #ff0000; stroke-opacity: 0.4"/>
    </defs>
    <g clip-path="url(#p0e838e3605)">
     <use xlink:href="#mcba5ceb9f9" x="135.401964" y="302.435282" style="fill: #ff0000; fill-opacity: 0.4; stroke: #ff0000; stroke-opacity: 0.4"/>
     <use xlink:href="#mcba5ceb9f9" x="136.985436" y="335.051201" style="fill: #ff0000; fill-opacity: 0.4; stroke: #ff0000; stroke-opacity: 0.4"/>
     <use xlink:href="#mcba5ceb9f9" x="138.568909" y="335.546103" style="fill: #ff0000; fill-opacity: 0.4; stroke: #ff0000; stroke-opacity: 0.4"/>
     <use xlink:href="#mcba5ceb9f9" x="140.152381" y="338.180566" style="fill: #ff0000; fill-opacity: 0.4; stroke: #ff0000; stroke-opacity: 0.4"/>
     <use xlink:href="#mcba5ceb9f9" x="141.735853" y="339.057039" style="fill: #ff0000; fill-opacity: 0.4; stroke: #ff0000; stroke-opacity: 0.4"/>
     <use xlink:href="#mcba5ceb9f9" x="143.319325" y="339.628765" style="fill: #ff0000; fill-opacity: 0.4; stroke: #ff0000; stroke-opacity: 0.4"/>
     <use xlink:href="#mcba5ceb9f9" x="144.902797" y="339.080962" style="fill: #ff0000; fill-opacity: 0.4; stroke: #ff0000; stroke-opacity: 0.4"/>
     <use xlink:href="#mcba5ceb9f9" x="146.48627" y="340.419605" style="fill: #ff0000; fill-opacity: 0.4; stroke: #ff0000; stroke-opacity: 0.4"/>
     <use xlink:href="#mcba5ceb9f9" x="148.069742" y="339.850396" style="fill: #ff0000; fill-opacity: 0.4; stroke: #ff0000; stroke-opacity: 0.4"/>
     <use xlink:href="#mcba5ceb9f9" x="439.428628" y="263.286111" style="fill: #ff0000; fill-opacity: 0.4; stroke: #ff0000; stroke-opacity: 0.4"/>
     <use xlink:href="#mcba5ceb9f9" x="441.0121" y="263.972428" style="fill: #ff0000; fill-opacity: 0.4; stroke: #ff0000; stroke-opacity: 0.4"/>
     <use xlink:href="#mcba5ceb9f9" x="442.595572" y="324.55618" style="fill: #ff0000; fill-opacity: 0.4; stroke: #ff0000; stroke-opacity: 0.4"/>
     <use xlink:href="#mcba5ceb9f9" x="444.179044" y="339.88188" style="fill: #ff0000; fill-opacity: 0.4; stroke: #ff0000; stroke-opacity: 0.4"/>
     <use xlink:href="#mcba5ceb9f9" x="445.762517" y="341.536607" style="fill: #ff0000; fill-opacity: 0.4; stroke: #ff0000; stroke-opacity: 0.4"/>
     <use xlink:href="#mcba5ceb9f9" x="447.345989" y="339.836551" style="fill: #ff0000; fill-opacity: 0.4; stroke: #ff0000; stroke-opacity: 0.4"/>
     <use xlink:href="#mcba5ceb9f9" x="448.929461" y="341.83128" style="fill: #ff0000; fill-opacity: 0.4; stroke: #ff0000; stroke-opacity: 0.4"/>
     <use xlink:href="#mcba5ceb9f9" x="450.512933" y="341.118518" style="fill: #ff0000; fill-opacity: 0.4; stroke: #ff0000; stroke-opacity: 0.4"/>
     <use xlink:href="#mcba5ceb9f9" x="452.096405" y="340.420863" style="fill: #ff0000; fill-opacity: 0.4; stroke: #ff0000; stroke-opacity: 0.4"/>
     <use xlink:href="#mcba5ceb9f9" x="453.679878" y="342.443301" style="fill: #ff0000; fill-opacity: 0.4; stroke: #ff0000; stroke-opacity: 0.4"/>
     <use xlink:href="#mcba5ceb9f9" x="455.26335" y="344.580339" style="fill: #ff0000; fill-opacity: 0.4; stroke: #ff0000; stroke-opacity: 0.4"/>
     <use xlink:href="#mcba5ceb9f9" x="456.846822" y="344.492188" style="fill: #ff0000; fill-opacity: 0.4; stroke: #ff0000; stroke-opacity: 0.4"/>
     <use xlink:href="#mcba5ceb9f9" x="458.430294" y="344.634488" style="fill: #ff0000; fill-opacity: 0.4; stroke: #ff0000; stroke-opacity: 0.4"/>
     <use xlink:href="#mcba5ceb9f9" x="460.013766" y="349.597394" style="fill: #ff0000; fill-opacity: 0.4; stroke: #ff0000; stroke-opacity: 0.4"/>
     <use xlink:href="#mcba5ceb9f9" x="743.455291" y="276.974715" style="fill: #ff0000; fill-opacity: 0.4; stroke: #ff0000; stroke-opacity: 0.4"/>
     <use xlink:href="#mcba5ceb9f9" x="745.038763" y="279.096645" style="fill: #ff0000; fill-opacity: 0.4; stroke: #ff0000; stroke-opacity: 0.4"/>
     <use xlink:href="#mcba5ceb9f9" x="746.622236" y="289.256693" style="fill: #ff0000; fill-opacity: 0.4; stroke: #ff0000; stroke-opacity: 0.4"/>
     <use xlink:href="#mcba5ceb9f9" x="748.205708" y="290.842148" style="fill: #ff0000; fill-opacity: 0.4; stroke: #ff0000; stroke-opacity: 0.4"/>
     <use xlink:href="#mcba5ceb9f9" x="749.78918" y="291.774038" style="fill: #ff0000; fill-opacity: 0.4; stroke: #ff0000; stroke-opacity: 0.4"/>
     <use xlink:href="#mcba5ceb9f9" x="751.372652" y="291.369803" style="fill: #ff0000; fill-opacity: 0.4; stroke: #ff0000; stroke-opacity: 0.4"/>
     <use xlink:href="#mcba5ceb9f9" x="752.956124" y="291.947823" style="fill: #ff0000; fill-opacity: 0.4; stroke: #ff0000; stroke-opacity: 0.4"/>
     <use xlink:href="#mcba5ceb9f9" x="754.539597" y="292.363385" style="fill: #ff0000; fill-opacity: 0.4; stroke: #ff0000; stroke-opacity: 0.4"/>
     <use xlink:href="#mcba5ceb9f9" x="756.123069" y="292.731101" style="fill: #ff0000; fill-opacity: 0.4; stroke: #ff0000; stroke-opacity: 0.4"/>
     <use xlink:href="#mcba5ceb9f9" x="757.706541" y="292.986743" style="fill: #ff0000; fill-opacity: 0.4; stroke: #ff0000; stroke-opacity: 0.4"/>
     <use xlink:href="#mcba5ceb9f9" x="759.290013" y="292.160643" style="fill: #ff0000; fill-opacity: 0.4; stroke: #ff0000; stroke-opacity: 0.4"/>
     <use xlink:href="#mcba5ceb9f9" x="760.873485" y="292.460355" style="fill: #ff0000; fill-opacity: 0.4; stroke: #ff0000; stroke-opacity: 0.4"/>
     <use xlink:href="#mcba5ceb9f9" x="762.456958" y="292.06619" style="fill: #ff0000; fill-opacity: 0.4; stroke: #ff0000; stroke-opacity: 0.4"/>
     <use xlink:href="#mcba5ceb9f9" x="764.04043" y="292.053603" style="fill: #ff0000; fill-opacity: 0.4; stroke: #ff0000; stroke-opacity: 0.4"/>
     <use xlink:href="#mcba5ceb9f9" x="765.623902" y="291.83448" style="fill: #ff0000; fill-opacity: 0.4; stroke: #ff0000; stroke-opacity: 0.4"/>
     <use xlink:href="#mcba5ceb9f9" x="767.207374" y="291.757667" style="fill: #ff0000; fill-opacity: 0.4; stroke: #ff0000; stroke-opacity: 0.4"/>
     <use xlink:href="#mcba5ceb9f9" x="768.790846" y="292.489323" style="fill: #ff0000; fill-opacity: 0.4; stroke: #ff0000; stroke-opacity: 0.4"/>
     <use xlink:href="#mcba5ceb9f9" x="770.374319" y="291.883595" style="fill: #ff0000; fill-opacity: 0.4; stroke: #ff0000; stroke-opacity: 0.4"/>
     <use xlink:href="#mcba5ceb9f9" x="771.957791" y="292.081302" style="fill: #ff0000; fill-opacity: 0.4; stroke: #ff0000; stroke-opacity: 0.4"/>
     <use xlink:href="#mcba5ceb9f9" x="773.541263" y="292.229905" style="fill: #ff0000; fill-opacity: 0.4; stroke: #ff0000; stroke-opacity: 0.4"/>
     <use xlink:href="#mcba5ceb9f9" x="775.124735" y="292.159384" style="fill: #ff0000; fill-opacity: 0.4; stroke: #ff0000; stroke-opacity: 0.4"/>
     <use xlink:href="#mcba5ceb9f9" x="776.708207" y="292.221085" style="fill: #ff0000; fill-opacity: 0.4; stroke: #ff0000; stroke-opacity: 0.4"/>
     <use xlink:href="#mcba5ceb9f9" x="778.29168" y="292.175756" style="fill: #ff0000; fill-opacity: 0.4; stroke: #ff0000; stroke-opacity: 0.4"/>
     <use xlink:href="#mcba5ceb9f9" x="779.875152" y="292.462873" style="fill: #ff0000; fill-opacity: 0.4; stroke: #ff0000; stroke-opacity: 0.4"/>
     <use xlink:href="#mcba5ceb9f9" x="781.458624" y="290.915195" style="fill: #ff0000; fill-opacity: 0.4; stroke: #ff0000; stroke-opacity: 0.4"/>
     <use xlink:href="#mcba5ceb9f9" x="783.042096" y="290.92023" style="fill: #ff0000; fill-opacity: 0.4; stroke: #ff0000; stroke-opacity: 0.4"/>
     <use xlink:href="#mcba5ceb9f9" x="784.625569" y="291.750105" style="fill: #ff0000; fill-opacity: 0.4; stroke: #ff0000; stroke-opacity: 0.4"/>
     <use xlink:href="#mcba5ceb9f9" x="786.209041" y="292.462873" style="fill: #ff0000; fill-opacity: 0.4; stroke: #ff0000; stroke-opacity: 0.4"/>
     <use xlink:href="#mcba5ceb9f9" x="787.792513" y="292.056121" style="fill: #ff0000; fill-opacity: 0.4; stroke: #ff0000; stroke-opacity: 0.4"/>
     <use xlink:href="#mcba5ceb9f9" x="789.375985" y="293.520691" style="fill: #ff0000; fill-opacity: 0.4; stroke: #ff0000; stroke-opacity: 0.4"/>
     <use xlink:href="#mcba5ceb9f9" x="790.959457" y="293.208383" style="fill: #ff0000; fill-opacity: 0.4; stroke: #ff0000; stroke-opacity: 0.4"/>
     <use xlink:href="#mcba5ceb9f9" x="792.54293" y="293.552166" style="fill: #ff0000; fill-opacity: 0.4; stroke: #ff0000; stroke-opacity: 0.4"/>
     <use xlink:href="#mcba5ceb9f9" x="895.468623" y="279.699846" style="fill: #ff0000; fill-opacity: 0.4; stroke: #ff0000; stroke-opacity: 0.4"/>
     <use xlink:href="#mcba5ceb9f9" x="897.052095" y="280.298022" style="fill: #ff0000; fill-opacity: 0.4; stroke: #ff0000; stroke-opacity: 0.4"/>
     <use xlink:href="#mcba5ceb9f9" x="898.635567" y="280.474324" style="fill: #ff0000; fill-opacity: 0.4; stroke: #ff0000; stroke-opacity: 0.4"/>
     <use xlink:href="#mcba5ceb9f9" x="900.21904" y="280.553655" style="fill: #ff0000; fill-opacity: 0.4; stroke: #ff0000; stroke-opacity: 0.4"/>
     <use xlink:href="#mcba5ceb9f9" x="901.802512" y="280.970485" style="fill: #ff0000; fill-opacity: 0.4; stroke: #ff0000; stroke-opacity: 0.4"/>
     <use xlink:href="#mcba5ceb9f9" x="903.385984" y="280.340834" style="fill: #ff0000; fill-opacity: 0.4; stroke: #ff0000; stroke-opacity: 0.4"/>
     <use xlink:href="#mcba5ceb9f9" x="904.969456" y="280.645581" style="fill: #ff0000; fill-opacity: 0.4; stroke: #ff0000; stroke-opacity: 0.4"/>
     <use xlink:href="#mcba5ceb9f9" x="906.552928" y="281.03723" style="fill: #ff0000; fill-opacity: 0.4; stroke: #ff0000; stroke-opacity: 0.4"/>
     <use xlink:href="#mcba5ceb9f9" x="908.136401" y="280.818107" style="fill: #ff0000; fill-opacity: 0.4; stroke: #ff0000; stroke-opacity: 0.4"/>
     <use xlink:href="#mcba5ceb9f9" x="909.719873" y="280.561216" style="fill: #ff0000; fill-opacity: 0.4; stroke: #ff0000; stroke-opacity: 0.4"/>
     <use xlink:href="#mcba5ceb9f9" x="911.303345" y="281.02841" style="fill: #ff0000; fill-opacity: 0.4; stroke: #ff0000; stroke-opacity: 0.4"/>
     <use xlink:href="#mcba5ceb9f9" x="912.886817" y="280.862187" style="fill: #ff0000; fill-opacity: 0.4; stroke: #ff0000; stroke-opacity: 0.4"/>
     <use xlink:href="#mcba5ceb9f9" x="914.470289" y="280.507057" style="fill: #ff0000; fill-opacity: 0.4; stroke: #ff0000; stroke-opacity: 0.4"/>
     <use xlink:href="#mcba5ceb9f9" x="916.053762" y="280.776553" style="fill: #ff0000; fill-opacity: 0.4; stroke: #ff0000; stroke-opacity: 0.4"/>
     <use xlink:href="#mcba5ceb9f9" x="917.637234" y="280.427726" style="fill: #ff0000; fill-opacity: 0.4; stroke: #ff0000; stroke-opacity: 0.4"/>
     <use xlink:href="#mcba5ceb9f9" x="919.220706" y="280.481875" style="fill: #ff0000; fill-opacity: 0.4; stroke: #ff0000; stroke-opacity: 0.4"/>
     <use xlink:href="#mcba5ceb9f9" x="920.804178" y="280.245122" style="fill: #ff0000; fill-opacity: 0.4; stroke: #ff0000; stroke-opacity: 0.4"/>
     <use xlink:href="#mcba5ceb9f9" x="922.38765" y="280.408838" style="fill: #ff0000; fill-opacity: 0.4; stroke: #ff0000; stroke-opacity: 0.4"/>
     <use xlink:href="#mcba5ceb9f9" x="923.971123" y="280.523429" style="fill: #ff0000; fill-opacity: 0.4; stroke: #ff0000; stroke-opacity: 0.4"/>
     <use xlink:href="#mcba5ceb9f9" x="925.554595" y="280.397501" style="fill: #ff0000; fill-opacity: 0.4; stroke: #ff0000; stroke-opacity: 0.4"/>
     <use xlink:href="#mcba5ceb9f9" x="927.138067" y="280.481875" style="fill: #ff0000; fill-opacity: 0.4; stroke: #ff0000; stroke-opacity: 0.4"/>
     <use xlink:href="#mcba5ceb9f9" x="928.721539" y="278.943008" style="fill: #ff0000; fill-opacity: 0.4; stroke: #ff0000; stroke-opacity: 0.4"/>
     <use xlink:href="#mcba5ceb9f9" x="930.305011" y="279.670889" style="fill: #ff0000; fill-opacity: 0.4; stroke: #ff0000; stroke-opacity: 0.4"/>
     <use xlink:href="#mcba5ceb9f9" x="931.888484" y="280.292978" style="fill: #ff0000; fill-opacity: 0.4; stroke: #ff0000; stroke-opacity: 0.4"/>
     <use xlink:href="#mcba5ceb9f9" x="933.471956" y="280.689661" style="fill: #ff0000; fill-opacity: 0.4; stroke: #ff0000; stroke-opacity: 0.4"/>
     <use xlink:href="#mcba5ceb9f9" x="935.055428" y="279.776669" style="fill: #ff0000; fill-opacity: 0.4; stroke: #ff0000; stroke-opacity: 0.4"/>
     <use xlink:href="#mcba5ceb9f9" x="936.6389" y="280.039863" style="fill: #ff0000; fill-opacity: 0.4; stroke: #ff0000; stroke-opacity: 0.4"/>
     <use xlink:href="#mcba5ceb9f9" x="938.222372" y="280.046156" style="fill: #ff0000; fill-opacity: 0.4; stroke: #ff0000; stroke-opacity: 0.4"/>
     <use xlink:href="#mcba5ceb9f9" x="939.805845" y="280.355947" style="fill: #ff0000; fill-opacity: 0.4; stroke: #ff0000; stroke-opacity: 0.4"/>
     <use xlink:href="#mcba5ceb9f9" x="941.389317" y="280.29172" style="fill: #ff0000; fill-opacity: 0.4; stroke: #ff0000; stroke-opacity: 0.4"/>
     <use xlink:href="#mcba5ceb9f9" x="942.972789" y="279.944151" style="fill: #ff0000; fill-opacity: 0.4; stroke: #ff0000; stroke-opacity: 0.4"/>
     <use xlink:href="#mcba5ceb9f9" x="944.556261" y="280.604028" style="fill: #ff0000; fill-opacity: 0.4; stroke: #ff0000; stroke-opacity: 0.4"/>
     <use xlink:href="#mcba5ceb9f9" x="1047.481955" y="266.12835" style="fill: #ff0000; fill-opacity: 0.4; stroke: #ff0000; stroke-opacity: 0.4"/>
     <use xlink:href="#mcba5ceb9f9" x="1049.065427" y="266.411701" style="fill: #ff0000; fill-opacity: 0.4; stroke: #ff0000; stroke-opacity: 0.4"/>
     <use xlink:href="#mcba5ceb9f9" x="1050.648899" y="265.30225" style="fill: #ff0000; fill-opacity: 0.4; stroke: #ff0000; stroke-opacity: 0.4"/>
     <use xlink:href="#mcba5ceb9f9" x="1052.232371" y="266.710155" style="fill: #ff0000; fill-opacity: 0.4; stroke: #ff0000; stroke-opacity: 0.4"/>
     <use xlink:href="#mcba5ceb9f9" x="1053.815843" y="266.266874" style="fill: #ff0000; fill-opacity: 0.4; stroke: #ff0000; stroke-opacity: 0.4"/>
     <use xlink:href="#mcba5ceb9f9" x="1055.399316" y="265.734194" style="fill: #ff0000; fill-opacity: 0.4; stroke: #ff0000; stroke-opacity: 0.4"/>
     <use xlink:href="#mcba5ceb9f9" x="1056.982788" y="265.607007" style="fill: #ff0000; fill-opacity: 0.4; stroke: #ff0000; stroke-opacity: 0.4"/>
     <use xlink:href="#mcba5ceb9f9" x="1058.56626" y="266.571631" style="fill: #ff0000; fill-opacity: 0.4; stroke: #ff0000; stroke-opacity: 0.4"/>
     <use xlink:href="#mcba5ceb9f9" x="1060.149732" y="266.424287" style="fill: #ff0000; fill-opacity: 0.4; stroke: #ff0000; stroke-opacity: 0.4"/>
     <use xlink:href="#mcba5ceb9f9" x="1061.733205" y="262.199335" style="fill: #ff0000; fill-opacity: 0.4; stroke: #ff0000; stroke-opacity: 0.4"/>
     <use xlink:href="#mcba5ceb9f9" x="1063.316677" y="264.075692" style="fill: #ff0000; fill-opacity: 0.4; stroke: #ff0000; stroke-opacity: 0.4"/>
     <use xlink:href="#mcba5ceb9f9" x="1064.900149" y="339.487724" style="fill: #ff0000; fill-opacity: 0.4; stroke: #ff0000; stroke-opacity: 0.4"/>
     <use xlink:href="#mcba5ceb9f9" x="1068.067093" y="281.43643" style="fill: #ff0000; fill-opacity: 0.4; stroke: #ff0000; stroke-opacity: 0.4"/>
     <use xlink:href="#mcba5ceb9f9" x="1069.650566" y="266.372655" style="fill: #ff0000; fill-opacity: 0.4; stroke: #ff0000; stroke-opacity: 0.4"/>
     <use xlink:href="#mcba5ceb9f9" x="1071.234038" y="266.95446" style="fill: #ff0000; fill-opacity: 0.4; stroke: #ff0000; stroke-opacity: 0.4"/>
     <use xlink:href="#mcba5ceb9f9" x="1072.81751" y="266.386509" style="fill: #ff0000; fill-opacity: 0.4; stroke: #ff0000; stroke-opacity: 0.4"/>
     <use xlink:href="#mcba5ceb9f9" x="1074.400982" y="267.445586" style="fill: #ff0000; fill-opacity: 0.4; stroke: #ff0000; stroke-opacity: 0.4"/>
     <use xlink:href="#mcba5ceb9f9" x="1075.984454" y="267.637001" style="fill: #ff0000; fill-opacity: 0.4; stroke: #ff0000; stroke-opacity: 0.4"/>
     <use xlink:href="#mcba5ceb9f9" x="1077.567927" y="267.590404" style="fill: #ff0000; fill-opacity: 0.4; stroke: #ff0000; stroke-opacity: 0.4"/>
     <use xlink:href="#mcba5ceb9f9" x="1079.151399" y="267.524917" style="fill: #ff0000; fill-opacity: 0.4; stroke: #ff0000; stroke-opacity: 0.4"/>
     <use xlink:href="#mcba5ceb9f9" x="1080.734871" y="267.085422" style="fill: #ff0000; fill-opacity: 0.4; stroke: #ff0000; stroke-opacity: 0.4"/>
     <use xlink:href="#mcba5ceb9f9" x="1082.318343" y="266.867567" style="fill: #ff0000; fill-opacity: 0.4; stroke: #ff0000; stroke-opacity: 0.4"/>
     <use xlink:href="#mcba5ceb9f9" x="1083.901815" y="267.319649" style="fill: #ff0000; fill-opacity: 0.4; stroke: #ff0000; stroke-opacity: 0.4"/>
     <use xlink:href="#mcba5ceb9f9" x="1085.485288" y="267.196238" style="fill: #ff0000; fill-opacity: 0.4; stroke: #ff0000; stroke-opacity: 0.4"/>
     <use xlink:href="#mcba5ceb9f9" x="1087.06876" y="265.460922" style="fill: #ff0000; fill-opacity: 0.4; stroke: #ff0000; stroke-opacity: 0.4"/>
     <use xlink:href="#mcba5ceb9f9" x="1088.652232" y="265.187659" style="fill: #ff0000; fill-opacity: 0.4; stroke: #ff0000; stroke-opacity: 0.4"/>
     <use xlink:href="#mcba5ceb9f9" x="1090.235704" y="265.146096" style="fill: #ff0000; fill-opacity: 0.4; stroke: #ff0000; stroke-opacity: 0.4"/>
     <use xlink:href="#mcba5ceb9f9" x="1091.819176" y="265.957093" style="fill: #ff0000; fill-opacity: 0.4; stroke: #ff0000; stroke-opacity: 0.4"/>
     <use xlink:href="#mcba5ceb9f9" x="1093.402649" y="265.943238" style="fill: #ff0000; fill-opacity: 0.4; stroke: #ff0000; stroke-opacity: 0.4"/>
     <use xlink:href="#mcba5ceb9f9" x="1094.986121" y="266.535112" style="fill: #ff0000; fill-opacity: 0.4; stroke: #ff0000; stroke-opacity: 0.4"/>
     <use xlink:href="#mcba5ceb9f9" x="1096.569593" y="265.73797" style="fill: #ff0000; fill-opacity: 0.4; stroke: #ff0000; stroke-opacity: 0.4"/>
    </g>
   </g>
   <g id="line2d_15">
    <path d="M 51.77 351.12027 
L 1141.2 351.12027 
" clip-path="url(#p0e838e3605)" style="fill: none; stroke-dasharray: 5,8.25; stroke-dashoffset: 0; stroke: #000000; stroke-width: 5"/>
   </g>
   <g id="patch_65">
    <path d="M 51.77 404.12 
L 51.77 10.8 
" style="fill: none; stroke: #000000; stroke-width: 0.8; stroke-linejoin: miter; stroke-linecap: square"/>
   </g>
   <g id="patch_66">
    <path d="M 1141.2 404.12 
L 1141.2 10.8 
" style="fill: none; stroke: #000000; stroke-width: 0.8; stroke-linejoin: miter; stroke-linecap: square"/>
   </g>
   <g id="patch_67">
    <path d="M 51.77 404.12 
L 1141.2 404.12 
" style="fill: none; stroke: #000000; stroke-width: 0.8; stroke-linejoin: miter; stroke-linecap: square"/>
   </g>
   <g id="patch_68">
    <path d="M 51.77 10.8 
L 1141.2 10.8 
" style="fill: none; stroke: #000000; stroke-width: 0.8; stroke-linejoin: miter; stroke-linecap: square"/>
   </g>
  </g>
 </g>
 <defs>
  <clipPath id="p0e838e3605">
   <rect x="51.77" y="10.8" width="1089.43" height="393.32"/>
  </clipPath>
 </defs>
</svg>
