<svg xmlns="http://www.w3.org/2000/svg"  viewBox="0 0 512 512" width="96px" height="96px"><path fill="#FEBF10" d="M354.4,401.2c-3.9-2.3-8.1-4.3-12.1-6.6c-4.6,16.2-29.2,23.4-45.7,23.9c-10.4,0.4-25-0.1-33.4-7c-4.1-3.4-6-7.5-6.2-11.7c-2.7,0.8-5.5,1.9-8.2,3.3c-0.7,0.9-1.6,1.7-2.7,2.1c-0.5,0.2-1,0.4-1.6,0.5c-2.8,2.1-5.2,4.5-6.7,7.4c-3.2,6.2,1.3,9.8,6.9,12c8,3.2,16.1,2.4,24.5,1.9c11.6-0.6,23.2-1.2,34.8-1.9c10.5-0.6,21.3-0.2,31.7-2.3c8.5-1.7,18.9-5,24.3-12.1C363.4,406.4,357.8,403.2,354.4,401.2z"/><path fill="#FEBF10" d="M284.7 396.5c-1.5 0-2.6-.5-3.6-1.2-2.4.4-5-.5-6.1-3.4-.2-.6-.5-1.3-.7-1.9-3.8 1.6-8.6 7-6.1 10.9 2.1 3.3 6 4.5 9.7 5.2 7.7 1.5 15.6 2 23.4 1.1 8.2-1 17.2-2.8 24.1-7.7 4.4-3.1 6.4-6.7 6.2-10.9C322 400.9 298.1 396.6 284.7 396.5zM320.5 355.4c.3-9.8-.6-19.5-.7-29.3-6.9 2-14.2 2.7-21.5 3-5.8.2-12.7 1-19.5.8.3 5.5 1.9 10.8 2.5 16.4.6 4.8.4 9.7.5 14.6.2 8.2.4 16.8 2.8 24.8 7.2.1 14.5.8 21.7.5 5.7-.3 15.4-.3 18.1-6.5.1-.2.2-.4.3-.6C319.9 372.5 320.3 363.1 320.5 355.4zM375.8 405.5c-.9-2.1-1.6-4.3-2.9-6.2-.7-1.1-.4-1-2.1-1.3-1.1-.2-2.2-.3-3.4-.5 5 4.9 7.2 10.9 2.4 18.3-3.1 4.7-7.6 8.3-12.7 11.1 3.1.3 6.1.4 9.2-.1 5.4-.9 11.7-2.8 17.8-3.5C380.6 417.8 378.2 411 375.8 405.5zM230.9 429.1c-6.3-6.9-6.5-13.7-3.4-19.8-6.2 7.3-12.8 14.5-17 23.1 8-.1 16-.3 23.9-.3C233.1 431.3 231.9 430.3 230.9 429.1zM334.3 293.4c-.9-.2-1.6-.6-2.1-1.1-2.2.4-4.5.7-6.7 1.2-5.1 1.2-10 2.6-15.1 3.8-9.4 2.3-19.7 4.5-29.3 2.7-5.7-1.1-11.2-3.5-15.6-6.8.8 2.8-.4 6.1-3.6 7 0 .1 0 .2 0 .3-.1.9-.1 1.8 0 2.6.2 1.7.3 3.4.8 5 1.4 4.7 4.4 8.3 9.3 9.5 8.8 2.2 19.1.7 28.1.3 8.8-.5 18.9-1.2 26.3-6.5 3.2-2.3 7.2-6.2 7.9-10.2C334.4 299.9 335.1 293.6 334.3 293.4z"/><path fill="#127274" d="M394.5,454c0-4.9,0-9.9-0.5-14.8c-0.2-1.3-0.2-3.5-0.9-4.7c0,0,0,0-0.1,0c0,0-0.1,0-0.1,0c-0.4,0-1.5-0.2-1.3-0.2c-9-0.6-18.2,3-27,4c-4.6,0.5-9.3-0.1-13.8-0.7c-3.2-0.4-9.5-1.8-11.6-1.4c-2.4,0.6-4.4-0.4-5.7-1.9c-11.3,1.7-23,1.5-34.3,2.1c-14.1,0.7-28.7,2.7-42.8,2.1c-1.2,0-2.4-0.1-3.7-0.3c-0.5,2.7-2.8,5.4-6.3,5.2c-13.4-0.9-26.9-0.1-40.4,0.1c0.4,10.6,2.3,20.9,3.4,31.4c0.4,4.1,0.2,7.9,0.2,12c0,2.6-0.4,6.3,2.9,6.9c7.4,1.4,15.2-2.5,22.4-3.8c9.5-1.7,19.5-1.2,29.1-0.4c11.3,0.9,22.6,2.5,33.9,3c11.3,0.5,22.7,0.3,34,0.1c11.5-0.2,23-0.1,34.4-1.3c9.9-1,19.7-2.5,29.6-4.1C395.5,476.2,394.6,465.1,394.5,454z"/><path fill="#FEBF10" d="M334.4,271.1c-6.6-3.6-12.5,0.8-19,2.5c-8.7,2.2-16.7,2.1-25.6,2c-7.5-0.1-14.7-3.3-22.2-3.9c-0.1,0.3-0.1,0.6-0.3,0.9c-4.6,12.1,13.5,17.5,22.1,17.2c8.2-0.3,16-2.2,23.9-4.3c6.2-1.6,12.7-2.3,18.7-4c2.1-0.6,5.1-1.3,5.9-3.6C338.9,275.1,336.5,272.2,334.4,271.1z"/><path fill="#FEBF10" d="M472.3,49.2c-6-7-15.5-9.2-24.4-8.8c-19.9,0.9-39,9.5-56.6,18.2c-7,6.8-20.7,8.5-29.3,9.8c-27.3,4.2-54.9,1.3-82.3,2c-31.4,0.9-62.8-1.7-94.2,0.7c-1.9,2.2-5.4,2.8-7.6,1.3c-1.4,0.2-2.9-0.1-4.2-1.4c-1.3-1.2-2.3-2.4-3.1-3.8c-0.4,0.1-0.9,0.1-1.3,0c-6.3-0.5-12.6-1.5-18.9-2.4c-16.4-2.2-39.2-6.4-53.6,4.3c-20.4,15.1-6.4,46.4,0.8,64.9c4.8,12.4,8.7,25.1,14.7,37.1c6,12.1,13.4,23.6,22.1,34c8.4,10,17.7,19.5,26.9,28.7c8.5,8.5,17.5,16.7,28.7,21.3c0.9-0.1,1.9,0.1,3,0.8c11.7,7.1,22.4,16,34.7,22c6.9,3.4,19.6,10.2,26.8,4.4c0.8-0.6,1.6-1,2.4-1.1c-1.2-4.1-1.2-8.8,0.7-13.8c0.2-0.4,0.3-0.8,0.5-1.1c-0.7-0.7-1.4-1.4-2.1-2.1c-9.3-1-18.4-3.1-27.2-6.2c-26.7-9.6-49-27.3-67.3-48.7c-9-10.5-16.7-21.9-24.9-33c-8.1-11.1-16.4-22.2-22.3-34.6c-9-19.2-11.9-47.2,7.4-61.6c8.3-6.2,19.5-8.4,29.4-5.2c5.5,1.8,10.7,4.1,16.1,6c3.4,1.3,7.9,3.2,11.5,1.8c4.8-1.8,8.1,3.2,6.9,7c0.4,1.4,0.3,2.8-0.3,4c5.5,15.2,12.1,29.7,16.5,45.3c4.6,16.4,11.1,32.5,18,48.2c6.8,15.5,14.2,31.5,24.3,45.1c4.9,6.6,9.8,14.3,15.7,20.1c1.8,1.8,3.6,3.6,5.4,5.3c0.9,0.9,1.9,1.8,2.8,2.6c0.1,0.1,0.2,0.1,0.3,0.2c10.8,0.9,21.1,4.4,32.2,4c5.6-0.2,11-1.4,16.2-3.3c3.9-1.4,7.9-2.9,12.1-3c-1-3.1,0.8-7.1,2.6-9.9c1.6-2.4,3.2-4.7,4.9-7c0.6-0.9,1.3-1.7,1.9-2.6c0.1-0.1,0.1-0.2,0.2-0.2c0,0,0-0.1,0.1-0.1c0.6-1.1,1.4-1.8,2.3-2.3c0.5-1.1,1-2.2,1.5-3.3c3.1-6.4,7.2-12.2,10.2-18.7c6.2-13.5,11.2-27.8,16.1-41.7c10.1-28.7,18.8-58.6,20.3-89.1c0.2-3.2,2.5-5.1,5-5.6c0.2-1.8,1.3-3.4,3.6-4c16.8-4.3,39.7-27.6,56.1-9c6,6.8,7.3,17,7.2,25.7c-0.1,12.3-2.6,24.3-7.2,35.7c-9.5,23.2-26.1,42.9-44,60.1c-9.7,9.3-19.2,18.6-28.2,28.6c-9.7,10.8-19.3,21.7-29.9,31.7c-1.5,1.4-3.2,1.8-4.8,1.5c0,0-0.1,0.1-0.1,0.1c-1,1.1-2.1,1.7-3.2,2.1c-0.1,0.2-0.3,0.3-0.4,0.5c-1.1,1.5-1.8,2.5-2.8,4.1c-0.2,0.3-0.4,0.6-0.5,0.9c0.2,1.7-0.3,3.4-1.4,4.7c4.7,2.4,8.6,6.4,10.1,11.4c0.9-0.4,1.9-0.6,3-0.4c8.7,1,13.3-7,17-13.6c4.2-7.4,8.2-15.8,15.6-20.4c1.5-1.4,2.9-2.7,4.3-4.1c21.8-20.9,41.4-43.6,57.5-69.3c8-12.8,15.2-26.1,21.3-39.9c5.5-12.3,10.9-24.8,12.8-38.2C481.8,73.8,480.9,59.2,472.3,49.2z M318,212.6c-0.3,0-0.7-0.1-1-0.1c-0.5,0-3.2,0-4.4,0c-4.7,0.2-9.5,0.6-14.2,1.2c-6.6,0.8-17.1,1.6-22,4.9c-5.9,3.9-12.1-5.2-6.2-9.1c7-4.6,17-5.8,25.8-6.6c-0.1-1.4,0.2-2.9,1-4c0-0.3,0-0.7,0-1.3c-0.1-1.3-0.2-2.6-0.2-3.9c-0.1-3.3,0.1-6.7,0.3-10c0.5-7.5,1.7-14.9,2.3-22.4c0.6-8.8,0.7-17.7,0.6-26.5c-7.2,9.8-16.1,18.5-23.6,28c-4.4,5.6-12.7-1.7-8.3-7.3c11.2-14.1,25.8-26.5,32.2-43.8c1.9-5.1,10.4-3.3,10.4,2c0,19.1,1,38.3-1.3,57.3c-1.1,8.6-1.8,17-1.5,25.7c0.1,1.6,0,3.4-0.4,5.1c2.9-0.2,5.8-0.3,8.7-0.2c3.2,0.1,7.7,0.2,9.6,3.4C329,210.5,322,216,318,212.6z"/><path fill="#FEBF10" d="M381,50.1c-2.7-1.1-5.3-1.9-8.2-2.3c-7.2-1.2-14.5-1.9-21.8-2.1c-31.6-0.6-63.3,2.4-94.8,3.4c-17.7,0.5-34.7,0.2-52.1,3.6c-6.9,1.3-14.2,3-20.6,6.1c-1.2,0.6-2.2,1.3-3,1.9c0.1,0,0.3-0.1,0.4-0.1c30-2.7,60-0.4,90.1-0.8c25.1-0.4,50.5,1.3,75.6-0.6c7-0.5,14.2-1.2,21-2.9c4.1-0.9,11.8-2,15.5-5.1C382.5,50.8,381.7,50.4,381,50.1z"/><path d="M471.7,34.7c-17.5-10.8-41.9-3.8-59.5,2.7c-6.5,2.4-12.8,5.2-19,8.1c-3.9-4.6-12.1-7.4-16.6-8.3c-14.6-2.9-29.8-2.9-44.6-2.4c-15.8,0.5-31.6,1.3-47.4,2c-19.3,0.9-38.7,0.8-58,1.7c-8.2,0.4-16.4,1.7-24.4,3.3C193,43.6,183,45.7,175,51c-2.4,1.6-4.1,3.5-5.1,5.5c-31.9-3-87.2-16.8-94.2,28.8c-0.4,2.4-0.5,4.8-0.5,7.2c0,10.4,3.1,21,6.4,30.7c4.2,12.3,8.9,24.7,13.6,36.8c4.9,12.5,11,24.5,18.3,35.8c7.3,11.2,16.1,20.9,25.3,30.6c14.1,14.8,28.3,32.3,48.1,39.6c0.5,0.2,1.1,0.3,1.6,0.4c12.6,7.7,24.1,17,37.5,23.2c7.3,3.4,17.1,7.1,25.7,5.8c-3.3,7.9,1.7,21.5,6.3,26.7c2.7,3.1,6.2,5.1,10,6.2c-0.1,0.4-0.1,0.8-0.1,1.2c0.1,5.4,1.4,10.6,2.3,15.8c1,5.4,0.7,10.9,0.7,16.4c0.1,5.8,0.3,11.8,1.1,17.7c-4.5,1.6-8.4,4.6-11.1,8.4c-5.6,0.9-12.4,3.5-18.6,7.2c-0.1,0-0.1,0-0.2,0c-0.4,0.1-0.8,0.1-1.1,0.1c-1.5,0.2-3,0.2-4.6,0.3c-1.9,0.1-3.8,0.1-5.7,0.1c-1.1,0-2,0.4-2.8,1c-3.6,0.2-5.1,1.2-7.7,4.2c-2.8,3.4-5.7,6.7-8.4,10.1c-5.4,6.6-10.5,13.6-13.4,21.7c-0.2,0.6-0.3,1.2-0.4,1.7c-0.6,0.7-0.9,1.6-1,2.6c-1.3,1-2.2,2.5-2.2,4.5c0.1,11.5,2.2,22.9,3.5,34.3c0.8,7.7-1.8,17.6,3.6,24c5.6,6.5,14.8,5.8,22.4,4.1c4.1-1,8.2-2.3,12.4-3.1c5-0.9,10.4-0.9,15.5-0.8c11.9,0.1,23.8,1.9,35.7,2.9c12.4,1.1,24.8,1.1,37.2,0.9c12.7-0.2,25.5-0.1,38.2-1.1c12.9-1,25.7-3.2,38.5-5.2c3.1-0.5,5.1-2.7,5.1-5.9c0-14-1.3-27.8-1.4-41.8c-0.1-6.1,0.6-16.5-3.7-22.1c0-1.8-0.9-3.5-3-4.6c-4.3-2.2-6.8-8.4-8.8-12.5c-2.3-4.8-4.1-9.8-6.4-14.6c-2.1-4.2-4.5-6.8-9-8.3c-4.1-1.4-8.8-1-13-2c-1-0.7-2.3-1.1-3.7-1.1h-6c-1.1,0-2.1,0.4-2.9,1.1c-2.4-1.3-4.5-2.4-6.2-3.5c-0.3-0.2-0.7-0.4-1-0.5c-0.3-1.1-0.8-2.2-1.3-3.4c-1-2.4-3.3-3.9-5.8-3.7c-0.2-0.5-0.4-1.1-0.8-1.6c-3.9-5.3-2.5-14.9-2.3-21.1c0.3-9.1-0.8-18.1-0.8-27.3c0-1.1-0.3-2.1-0.8-2.8c2.4-1.4,4.7-3,6.8-5c6.5-6,12-20.8,6.9-29.1c1.8-1.6,3.3-3.5,4.2-5.6c0.4,0.2,0.9,0.3,1.4,0.3c11.2,1.3,19.2-4.3,25.2-13.3c4.9-7.3,8.1-17.8,15.9-22.5c0.7-0.4,1.2-0.9,1.6-1.5c10.6-10.1,21-20.3,30.7-31.3c9.9-11.2,18.7-23.5,27.1-35.9c16-23.4,30.1-50,38.1-77.3C494.6,78.2,493.8,48.3,471.7,34.7z M183.5,58.7c6.4-3.1,13.6-4.7,20.6-6.1c17.4-3.4,34.5-3.1,52.1-3.6c31.6-1,63.3-4,94.8-3.4c7.3,0.1,14.6,0.8,21.8,2.1c2.9,0.5,5.5,1.2,8.2,2.3c0.7,0.3,1.5,0.7,2.2,1.2c-3.7,3.1-11.5,4.1-15.5,5.1c-6.9,1.6-14,2.3-21,2.9c-25.1,1.9-50.5,0.2-75.6,0.6c-30,0.4-60.1-1.9-90.1,0.8c-0.1,0-0.3,0.1-0.4,0.1C181.2,60,182.3,59.3,183.5,58.7z M227.4,409.3c-3.1,6.1-2.9,13,3.4,19.8c1,1.1,2.2,2.1,3.5,3c-8-0.1-16,0.2-23.9,0.3C214.7,423.9,221.2,416.7,227.4,409.3z M391.6,434.3c-0.1,0,0.9,0.2,1.3,0.2c0,0,0.1,0,0.1,0c0,0,0,0,0.1,0c0.7,1.2,0.8,3.4,0.9,4.7c0.6,4.9,0.5,9.9,0.5,14.8c0.1,11.1,1,22.2,1.3,33.4c-9.8,1.5-19.7,3-29.6,4.1c-11.5,1.2-22.9,1.1-34.4,1.3c-11.4,0.2-22.7,0.5-34-0.1c-11.3-0.5-22.6-2.1-33.9-3c-9.5-0.8-19.6-1.3-29.1,0.4c-7.2,1.3-15,5.3-22.4,3.8c-3.3-0.6-2.9-4.3-2.9-6.9c0-4.1,0.2-7.9-0.2-12c-1.1-10.5-3-20.9-3.4-31.4c13.5-0.2,26.9-0.9,40.4-0.1c3.5,0.2,5.8-2.4,6.3-5.2c1.3,0.1,2.5,0.2,3.7,0.3c14.1,0.6,28.7-1.3,42.8-2.1c11.4-0.6,23-0.4,34.3-2.1c1.3,1.5,3.3,2.4,5.7,1.9c2-0.5,8.4,0.9,11.6,1.4c4.5,0.6,9.2,1.3,13.8,0.7C373.4,437.2,382.6,433.7,391.6,434.3z M369.9,415.9c4.8-7.4,2.6-13.4-2.4-18.3c1.1,0.2,2.3,0.3,3.4,0.5c1.7,0.3,1.3,0.1,2.1,1.3c1.2,1.9,2,4.1,2.9,6.2c2.3,5.5,4.7,12.2,8.3,17.9c-6.1,0.7-12.4,2.6-17.8,3.5c-3,0.5-6.1,0.4-9.2,0.1C362.3,424.3,366.8,420.7,369.9,415.9z M342.3,394.6c4,2.2,8.1,4.2,12.1,6.6c3.5,2.1,9.1,5.3,5.8,9.6c-5.4,7.2-15.9,10.5-24.3,12.1c-10.4,2-21.2,1.7-31.7,2.3c-11.6,0.6-23.2,1.2-34.8,1.9c-8.4,0.5-16.5,1.3-24.5-1.9c-5.6-2.2-10.1-5.9-6.9-12c1.5-2.8,3.8-5.3,6.7-7.4c0.5-0.1,1.1-0.3,1.6-0.5c1.1-0.5,2-1.2,2.7-2.1c2.6-1.4,5.4-2.5,8.2-3.3c0.2,4.2,2.1,8.3,6.2,11.7c8.4,6.9,23,7.4,33.4,7C313.1,418,337.7,410.8,342.3,394.6z M331.8,388.5c0.1,4.2-1.8,7.8-6.2,10.9c-6.9,4.8-15.9,6.7-24.1,7.7c-7.8,0.9-15.7,0.4-23.4-1.1c-3.7-0.7-7.6-1.9-9.7-5.2c-2.5-4,2.3-9.3,6.1-10.9c0.2,0.6,0.4,1.3,0.7,1.9c1.1,2.9,3.7,3.8,6.1,3.4c0.9,0.8,2.1,1.2,3.6,1.2C298.1,396.6,322,400.9,331.8,388.5z M324.7,379c-0.1,0.2-0.2,0.4-0.3,0.6c-2.7,6.2-12.4,6.2-18.1,6.5c-7.2,0.3-14.5-0.4-21.7-0.5c-2.4-8-2.6-16.5-2.8-24.8c-0.1-4.9,0.1-9.7-0.5-14.6c-0.7-5.5-2.2-10.8-2.5-16.4c6.7,0.2,13.7-0.6,19.5-0.8c7.3-0.2,14.6-0.9,21.5-3c0,9.8,1,19.5,0.7,29.3C320.3,363.1,319.9,372.5,324.7,379z M334.1,301.2c-0.8,4-4.8,7.9-7.9,10.2c-7.4,5.4-17.4,6.1-26.3,6.5c-9,0.5-19.3,1.9-28.1-0.3c-4.9-1.2-7.9-4.8-9.3-9.5c-0.5-1.6-0.6-3.3-0.8-5c-0.1-0.9-0.1-1.8,0-2.6c0-0.1,0-0.2,0-0.3c3.3-0.9,4.4-4.3,3.6-7c4.4,3.4,9.9,5.7,15.6,6.8c9.6,1.8,20-0.4,29.3-2.7c5-1.2,10-2.6,15.1-3.8c2.2-0.5,4.5-0.8,6.7-1.2c0.6,0.5,1.3,0.8,2.1,1.1C335.1,293.6,334.4,299.9,334.1,301.2z M338,277.7c-0.8,2.3-3.9,3-5.9,3.6c-6.1,1.8-12.6,2.4-18.7,4c-7.9,2.1-15.7,4-23.9,4.3c-8.6,0.4-26.8-5.1-22.1-17.2c0.1-0.3,0.2-0.6,0.3-0.9c7.5,0.6,14.7,3.8,22.2,3.9c8.9,0.1,16.9,0.2,25.6-2c6.5-1.7,12.4-6.1,19-2.5C336.5,272.2,338.9,275.1,338,277.7z M480,86.2c-1.9,13.4-7.3,26-12.8,38.2c-6.2,13.8-13.3,27.1-21.3,39.9c-16.1,25.6-35.7,48.3-57.5,69.3c-1.4,1.4-2.9,2.8-4.3,4.1c-7.4,4.7-11.5,13-15.6,20.4c-3.7,6.6-8.3,14.6-17,13.6c-1.1-0.1-2.1,0-3,0.4c-1.5-5-5.4-9.1-10.1-11.4c1.1-1.3,1.7-3.1,1.4-4.7c0.2-0.3,0.3-0.6,0.5-0.9c0.9-1.6,1.7-2.6,2.8-4.1c0.1-0.2,0.3-0.3,0.4-0.5c1.1-0.3,2.2-1,3.2-2.1c0,0,0.1-0.1,0.1-0.1c1.6,0.3,3.3-0.1,4.8-1.5c10.5-10,20.2-20.9,29.9-31.7c9-10,18.5-19.3,28.2-28.6c17.9-17.2,34.5-36.9,44-60.1c4.7-11.4,7.1-23.4,7.2-35.7c0.1-8.7-1.3-18.9-7.2-25.7c-16.4-18.7-39.2,4.7-56.1,9c-2.4,0.6-3.5,2.2-3.6,4c-2.5,0.5-4.9,2.4-5,5.6c-1.6,30.5-10.2,60.4-20.3,89.1c-4.9,14-9.9,28.3-16.1,41.7c-3,6.4-7.1,12.3-10.2,18.7c-0.5,1.1-1,2.2-1.5,3.3c-0.9,0.5-1.7,1.2-2.3,2.3c0,0.1-0.1,0.1-0.1,0.1c0,0.1-0.1,0.1-0.2,0.2c-0.6,0.9-1.3,1.7-1.9,2.6c-1.7,2.3-3.4,4.6-4.9,7c-1.8,2.8-3.6,6.8-2.6,9.9c-4.2,0.1-8.2,1.6-12.1,3c-5.3,2-10.6,3.1-16.2,3.3c-11,0.3-21.3-3.2-32.2-4c-0.1-0.1-0.2-0.1-0.3-0.2c-1-0.8-1.9-1.7-2.8-2.6c-1.8-1.7-3.6-3.5-5.4-5.3c-5.9-5.8-10.8-13.5-15.7-20.1c-10.1-13.6-17.5-29.7-24.3-45.1c-6.9-15.6-13.4-31.7-18-48.2c-4.4-15.6-11-30.2-16.5-45.3c0.6-1.2,0.6-2.7,0.3-4c1.1-3.8-2.1-8.8-6.9-7c-3.6,1.4-8.1-0.5-11.5-1.8c-5.4-2-10.6-4.3-16.1-6c-9.9-3.2-21.1-1-29.4,5.2c-19.3,14.4-16.4,42.4-7.4,61.6c5.8,12.5,14.1,23.6,22.3,34.6c8.2,11.1,15.9,22.5,24.9,33c18.3,21.3,40.7,39.1,67.3,48.7c8.8,3.2,17.9,5.2,27.2,6.2c0.7,0.7,1.4,1.4,2.1,2.1c-0.2,0.3-0.4,0.7-0.5,1.1c-1.9,5-2,9.6-0.7,13.8c-0.8,0.1-1.6,0.5-2.4,1.1c-7.2,5.8-19.9-1-26.8-4.4c-12.3-6-23-14.9-34.7-22c-1.1-0.6-2.1-0.9-3-0.8c-11.2-4.6-20.2-12.8-28.7-21.3c-9.2-9.2-18.5-18.7-26.9-28.7c-8.7-10.3-16.1-21.9-22.1-34c-5.9-12-9.8-24.7-14.7-37.1c-7.2-18.4-21.2-49.8-0.8-64.9c14.5-10.7,37.2-6.6,53.6-4.3c6.3,0.9,12.6,1.9,18.9,2.4c0.5,0,0.9,0,1.3,0c0.8,1.3,1.8,2.6,3.1,3.8c1.4,1.3,2.8,1.6,4.2,1.4c2.3,1.4,5.8,0.9,7.6-1.3c31.3-2.4,62.8,0.2,94.2-0.7c27.4-0.8,55,2.2,82.3-2c8.6-1.3,22.2-3.1,29.3-9.8C409,49.9,428,41.3,448,40.4c8.9-0.4,18.4,1.8,24.4,8.8C480.9,59.2,481.8,73.8,480,86.2z M361.5,220.5c1-2,2-4,2.8-6.1c3.3-8.3,6.6-16.6,9.7-25c12.7-33.8,23.6-68.8,25.7-105.1c0.5,0,1-0.1,1.5-0.2c10.5-2.7,19-9.9,29.1-13.6c6.7-2.5,13.1-2.5,16.8,4.2c4.1,7.3,3.1,18.2,2.2,26c-1.4,11.2-5.5,21.8-10.7,31.8c-10.5,19.9-26.4,36.6-42.7,51.8C383.6,195.7,372.7,208.3,361.5,220.5z M244.5,251.3c-50.2-11.7-82.7-56.1-110.6-97.3c-11.7-17.3-25.1-45-7.8-63.3c14.5-15.4,31.4,2.3,47.5,3.6c2.9,8.2,6.4,16.2,9.7,24.2c3.7,9,6.3,18.3,9,27.7c5,17.5,12.4,34.8,20,51.4c7.5,16.5,16,32.7,27.2,47C241.1,246.8,242.8,249.1,244.5,251.3z"/><path d="M325.9,204.9c-1.8-3.3-6.3-3.3-9.6-3.4c-2.9-0.1-5.8,0-8.7,0.2c0.3-1.7,0.4-3.5,0.4-5.1c-0.3-8.7,0.4-17.1,1.5-25.7c2.3-19,1.4-38.2,1.3-57.3c0-5.3-8.5-7.1-10.4-2c-6.4,17.3-21,29.7-32.2,43.8c-4.4,5.5,3.8,12.8,8.3,7.3c7.5-9.4,16.4-18.2,23.6-28c0.1,8.8,0.1,17.7-0.6,26.5c-0.5,7.5-1.8,14.9-2.3,22.4c-0.2,3.3-0.4,6.7-0.3,10c0,1.3,0.1,2.6,0.2,3.9c0,0.6,0,1.1,0,1.3c-0.8,1.2-1.2,2.6-1,4c-8.7,0.8-18.8,2-25.8,6.6c-5.9,3.9,0.2,13,6.2,9.1c4.9-3.2,15.3-4.1,22-4.9c4.7-0.6,9.4-1,14.2-1.2c1.3,0,3.9-0.1,4.4,0c0.3,0,0.7,0.1,1,0.1C322,216,329,210.5,325.9,204.9z"/></svg>